<svg width="205" height="40" viewBox="0 0 205 40" fill="none" xmlns="http://www.w3.org/2000/svg">
<path d="M172.505 5.64145C165.203 10.5021 150.711 18.1879 155.27 29.8535C158.198 35.8381 165.129 33.8027 169.577 31.7066C169.577 31.7066 168.428 34.7141 163.424 35.7166C162.461 35.8989 158.346 35.9596 157.457 36.0508C157.457 36.0508 155.381 36.1115 155.381 38.0558C155.381 40 157.457 40 157.457 40H159.532C159.532 40 164.573 39.8481 168.391 38.4507C171.838 37.0533 172.95 35.1698 173.506 34.5014V37.9646C173.506 39.0887 174.618 39.9697 175.952 39.9697C177.324 39.9697 178.399 39.0583 178.399 37.9646V1.60105C178.436 1.57067 177.695 2.20863 172.505 5.64145ZM160.793 29.2155C158.828 27.6054 158.754 23.7473 160.644 20.5879C163.536 15.2108 173.358 9.80336 173.469 9.65147V24.5371C173.506 24.5371 164.796 31.8889 160.793 29.2155Z" fill="#0062AD"/>
<path d="M186.728 5.70455C181.541 2.23852 180.8 1.60004 180.8 1.60004V37.9934C180.8 39.1183 181.911 40 183.245 40C184.616 40 185.69 39.0879 185.69 37.9934V29.5715C185.95 29.6627 199.509 38.9663 203.918 29.906C208.512 18.2613 194.026 10.5692 186.728 5.70455ZM198.435 29.2979C194.433 31.9734 185.727 24.6157 185.727 24.6157V9.71784C185.838 9.86986 195.656 15.2817 198.546 20.6632C200.472 23.7948 200.398 27.6865 198.435 29.2979Z" fill="#0062AD"/>
<path d="M136.11 2.40002C134.834 2.40002 133.784 3.31413 133.784 4.41105V27.1721C133.784 27.1721 130.631 27.7206 127.742 29.9754C124.815 32.2302 124.44 34.4545 124.44 34.4545C124.44 34.4545 117.686 31.9864 115.622 18.5796C115.247 16.0506 115.021 13.4302 114.871 11.4192C114.721 9.25578 114.534 5.84313 114.534 5.84313C114.534 5.84313 114.421 4.47198 112.545 4.47198C110.669 4.47198 110.406 5.8736 110.406 5.8736C110.406 5.8736 110.368 9.16436 110.481 11.2973C110.706 15.4717 111.532 22.6321 114.421 28.9394C118.961 38.8422 127.667 40 127.667 40C127.667 40 127.254 38.6593 128.568 35.8866C129.881 33.1138 133.746 31.9255 133.746 31.9255V37.989C133.746 39.1164 134.797 40 136.072 40C137.348 40 138.399 39.0859 138.399 37.989V4.44151C138.437 3.31412 137.386 2.40002 136.11 2.40002Z" fill="#0062AD"/>
<path d="M119.605 7.7873C120.847 10.1204 120.695 12.7263 120.695 12.7263C120.695 13.7868 121.544 14.6352 122.604 14.6352C123.665 14.6352 124.513 13.7868 124.513 12.7263C124.513 12.7263 124.21 8.57511 122.847 6.02986C121.483 3.48461 118.393 0.878756 118.393 0.878756C117.665 0.121241 116.484 0.0606432 115.696 0.787858C114.908 1.51507 114.878 2.72709 115.605 3.48461C115.605 3.48461 118.362 5.45415 119.605 7.7873Z" fill="#0062AD"/>
<path d="M105.74 2.39996C104.501 2.39996 103.48 3.31407 103.48 4.41099V27.1721C103.48 27.1721 100.418 27.7205 97.6115 29.9753C94.7684 32.2301 94.4039 34.4544 94.4039 34.4544C94.4039 34.4544 87.8427 31.9863 85.838 18.5795C85.0725 13.3996 84.9631 7.79316 84.9631 7.79316C84.9631 7.79316 84.708 6.42201 82.8854 6.42201C81.0629 6.42201 80.8078 7.82363 80.8078 7.82363C80.8078 7.82363 80.4432 19.4022 84.708 28.9393C89.1185 38.8421 97.5751 40 97.5751 40C97.5751 40 97.1741 38.6593 98.4499 35.8865C99.7257 33.1137 103.48 31.9254 103.48 31.9254V37.9889C103.48 39.1163 104.501 40 105.74 40C106.979 40 108 39.0859 108 37.9889V4.44146C108 3.31407 106.979 2.39996 105.74 2.39996Z" fill="#0062AD"/>
<path d="M56.6846 0C62.1781 0 61.2013 1.94233 75.9633 1.94233C90.7253 1.94233 89.822 0 95.3154 0C96.2702 0 98.4 0.151743 98.4 1.94233C98.4 3.73293 94.985 5.97876 94.985 5.97876C94.985 5.97876 91.9886 8.18202 91.9886 11.1562C91.9886 11.1562 92.2456 13.8573 90.0423 13.8573C87.8023 13.8573 87.6187 11.1562 87.6187 11.1562C87.6187 7.75714 89.822 4.46725 89.822 4.46725C88.2253 5.32874 78.4604 5.23817 78.4604 5.23817V37.1666C78.4604 37.1666 78.4604 39.2107 76.0082 39.2107C73.5561 39.2107 73.5397 37.1666 73.5397 37.1666V5.23817C73.5397 5.23817 63.7747 5.32874 62.1781 4.46725C62.1781 4.46725 64.3813 7.75714 64.3813 11.1562C64.3813 11.1562 64.1977 13.8573 61.9577 13.8573C59.7544 13.8573 60.0115 11.1562 60.0115 11.1562C60.0115 8.18202 57.0151 5.97876 57.0151 5.97876C57.0151 5.97876 53.6 3.73293 53.6 1.94233C53.6 0.151743 55.7299 0 56.6846 0Z" fill="#0062AD"/>
<path d="M56.5124 12.5863C64.2075 19.8068 64.1335 25.0079 64.1335 25.0079C64.1335 25.0079 66.6492 20.4493 66.8342 15.1257C67.2412 8.39472 67.1302 7.62984 67.1302 7.62984C67.1302 7.62984 67.4262 6.28365 69.3129 6.28365C71.1997 6.28365 71.1997 7.66044 71.1997 7.66044V13.5959C71.1997 13.5959 71.2737 18.6135 68.98 24.1207C66.1313 30.0256 64.0595 32.4732 61.2109 34.829C58.3622 37.1849 55.9205 37.9803 53.8117 38.5922C51.703 39.2041 47.8924 39.9996 47.8924 39.9996C47.8924 39.9996 46.1906 40.0608 45.6727 38.6534C45.1547 37.246 46.5976 36.42 46.5976 36.42C46.5976 36.42 52.5909 35.5939 56.5124 33.1157C60.6929 30.2703 60.175 26.2929 60.175 26.2929C60.175 26.2929 59.4721 20.541 52.8129 14.8197C46.1536 9.09841 40.4933 6.25306 40.4933 6.25306C40.4933 6.25306 39.3834 5.09043 40.4933 3.89722C41.6031 2.7346 43.4159 3.3771 43.4159 3.3771C43.305 3.31591 51.111 8.21116 56.5124 12.5863Z" fill="#0062AD"/>
<path d="M33.7331 5.70455C28.7166 2.23852 28 1.60004 28 1.60004V37.9934C28 39.1183 29.075 40 30.3649 40C31.6907 40 32.7298 39.0879 32.7298 37.9934V29.5715C32.9806 29.6627 46.095 38.9663 50.359 29.906C54.7663 18.2613 40.7561 10.5692 33.7331 5.70455ZM45.0559 29.2979C41.1861 31.9734 32.7656 24.6157 32.7656 24.6157V9.71785C32.8731 9.86987 42.3685 15.2817 45.1634 20.6632C47.0266 23.7948 46.9191 27.6865 45.0559 29.2979Z" fill="#0062AD"/>
<path d="M22.3439 35.9141C19.1626 35.9141 17.2912 35.6094 14.3345 34.2993C9.91813 32.2885 6.69941 26.8348 6.69941 26.8348C6.69941 26.8348 11.4152 25.4638 15.2702 21.6858C16.6924 20.4671 20.8094 14.3737 21.745 12.8198C22.6807 11.266 24.9637 6.26932 25.3006 5.56857C25.9368 4.22801 25.4503 3.00931 24.3649 2.58277C23.4292 2.18669 21.2959 2.39997 20.6596 3.80147C20.6596 3.80147 16.0561 15.2267 10.0304 19.7359C6.84912 22.1428 4.94035 22.2952 4.94035 22.2952V4.41081C4.94035 3.28352 3.81754 2.39996 2.47017 2.39996C1.12281 2.39996 0 3.31399 0 4.41081V37.9554C0 39.0827 1.12281 39.9663 2.47017 39.9663C3.81754 39.9663 4.94035 39.0523 4.94035 37.9554V32.0143C4.94035 32.0143 5.80117 33.7205 9.28187 36.1883C10.8164 37.2851 13.062 38.6562 15.9064 39.296C19.4246 40.0882 22.1567 39.9967 22.3813 39.9967C22.6058 39.9967 25.6 39.8139 25.6 37.8336C25.5626 35.7922 22.3439 35.9141 22.3439 35.9141Z" fill="#0062AD"/>
</svg>
