<svg width="115" height="100" viewBox="0 0 115 100" fill="none" xmlns="http://www.w3.org/2000/svg">
<path d="M22.3517 51.6482C25.9373 51.6482 29.4424 50.585 32.4238 48.5929C35.4051 46.6008 37.7288 43.7694 39.101 40.4567C40.4731 37.144 40.8321 33.4988 40.1326 29.9821C39.4331 26.4654 37.7065 23.235 35.171 20.6996C32.6356 18.1642 29.4053 16.4375 25.8885 15.738C22.3718 15.0385 18.7266 15.3975 15.4139 16.7697C12.1012 18.1418 9.26982 20.4655 7.27775 23.4468C5.28568 26.4282 4.22241 29.9333 4.22241 33.5189C4.22808 38.3254 6.13995 42.9333 9.53862 46.332C12.9373 49.7307 17.5452 51.6425 22.3517 51.6482ZM22.3517 18.6859C25.2854 18.6859 28.1532 19.5558 30.5925 21.1857C33.0318 22.8156 34.933 25.1322 36.0556 27.8426C37.1783 30.553 37.4721 33.5354 36.8997 36.4127C36.3274 39.29 34.9147 41.933 32.8402 44.0075C30.7658 46.0819 28.1228 47.4946 25.2455 48.067C22.3681 48.6393 19.3857 48.3456 16.6753 47.2229C13.9649 46.1002 11.6483 44.199 10.0185 41.7597C8.38859 39.3205 7.51864 36.4526 7.51864 33.5189C7.52344 29.5864 9.08774 25.8164 11.8684 23.0357C14.6491 20.255 18.4192 18.6907 22.3517 18.6859Z" fill="#F8F8FC"/>
<path d="M43.7772 23.6304H47.0735V26.9266H43.7772V23.6304Z" fill="#F8F8FC"/>
<path d="M50.3696 23.6304H56.9621V26.9266H50.3696V23.6304Z" fill="#F8F8FC"/>
<path d="M43.7772 30.2227H56.9622V33.5189H43.7772V30.2227Z" fill="#F8F8FC"/>
<path d="M23.9997 38.4631H20.7035C20.2664 38.4631 19.8472 38.2895 19.5381 37.9804C19.229 37.6713 19.0554 37.2521 19.0554 36.815H15.7592C15.7592 38.1263 16.2801 39.3839 17.2073 40.3112C18.1346 41.2384 19.3922 41.7593 20.7035 41.7593V45.0556H23.9997V41.7593C25.3111 41.7593 26.5687 41.2384 27.4959 40.3112C28.4232 39.3839 28.9441 38.1263 28.9441 36.815C28.9441 35.5037 28.4232 34.246 27.4959 33.3188C26.5687 32.3916 25.3111 31.8706 23.9997 31.8706H20.7035C20.2664 31.8706 19.8472 31.697 19.5381 31.3879C19.229 31.0788 19.0554 30.6596 19.0554 30.2225C19.0554 29.7854 19.229 29.3662 19.5381 29.0571C19.8472 28.748 20.2664 28.5744 20.7035 28.5744H23.9997C24.4368 28.5744 24.8561 28.748 25.1651 29.0571C25.4742 29.3662 25.6479 29.7854 25.6479 30.2225H28.9441C28.9441 28.9112 28.4232 27.6536 27.4959 26.7263C26.5687 25.7991 25.3111 25.2782 23.9997 25.2782V21.9819H20.7035V25.2782C19.3922 25.2782 18.1346 25.7991 17.2073 26.7263C16.2801 27.6536 15.7592 28.9112 15.7592 30.2225C15.7592 31.5338 16.2801 32.7915 17.2073 33.7187C18.1346 34.6459 19.3922 35.1669 20.7035 35.1669H23.9997C24.4368 35.1669 24.8561 35.3405 25.1651 35.6496C25.4742 35.9587 25.6479 36.3779 25.6479 36.815C25.6479 37.2521 25.4742 37.6713 25.1651 37.9804C24.8561 38.2895 24.4368 38.4631 23.9997 38.4631Z" fill="#F8F8FC"/>
<path d="M27.296 82.9624H40.481V86.2586H27.296V82.9624Z" fill="#F8F8FC"/>
<path d="M20.7035 82.9624H23.9997V86.2586H20.7035V82.9624Z" fill="#F8F8FC"/>
<path d="M30.5923 76.3696H40.481V79.6659H30.5923V76.3696Z" fill="#F8F8FC"/>
<path d="M33.8884 69.7773H40.4809V73.0736H33.8884V69.7773Z" fill="#F8F8FC"/>
<path d="M23.9998 76.3696H27.296V79.6659H23.9998V76.3696Z" fill="#F8F8FC"/>
<path d="M56 82.9521H59.2962V86.2484H56V82.9521Z" fill="#F8F8FC"/>
<path d="M58.6019 82.9526H61.8982V86.2489H58.6019V82.9526Z" fill="#F8F8FC"/>
<path d="M113.034 70.211L98.2169 57.0261C97.9151 56.7574 97.525 56.609 97.1209 56.6091H92.1601V41.7596C92.1601 41.3224 91.9865 40.9032 91.6774 40.5942C91.3683 40.2851 90.9491 40.1114 90.512 40.1114H63.6284V8.79722C63.6258 6.61249 62.7568 4.51798 61.2119 2.97314C59.6671 1.4283 57.5726 0.559258 55.3878 0.556641H9.24058C7.05585 0.559258 4.96134 1.4283 3.4165 2.97314C1.87166 4.51798 1.00262 6.61249 1 8.79722V91.2031C1.00262 93.3878 1.87166 95.4823 3.4165 97.0271C4.96134 98.572 7.05585 99.441 9.24058 99.4436H55.3878C57.3962 99.4376 59.3328 98.6966 60.8324 97.3607C62.332 96.0248 63.2908 94.1862 63.5279 92.1919C64.7586 91.6702 65.8445 90.8579 66.6924 89.8245C67.5404 88.7912 68.1251 87.5676 68.3964 86.2587H90.6653C91.0466 88.1175 92.057 89.7881 93.5262 90.9889C94.9954 92.1897 96.8336 92.8474 98.7311 92.8512C100.63 92.8494 102.471 92.1926 103.942 90.9916C105.413 89.7907 106.425 88.119 106.807 86.2587H108.62C109.933 86.2591 111.192 85.7389 112.122 84.812C113.052 83.8852 113.577 82.6273 113.581 81.3144V71.4257C113.579 71.1963 113.53 70.9697 113.435 70.7606C113.341 70.5514 113.204 70.3642 113.034 70.211ZM98.7658 64.8497H102.049L107.606 69.794H98.7526L98.7658 64.8497ZM88.8639 58.2407V69.7775H47.1473V43.4077H88.8639V58.2407ZM20.7774 3.85287H43.851V7.14911H20.7774V3.85287ZM55.3878 96.1474H9.24058C7.92926 96.1474 6.67164 95.6265 5.7444 94.6992C4.81715 93.772 4.29623 92.5144 4.29623 91.2031V8.79722C4.29623 7.4859 4.81715 6.22829 5.7444 5.30104C6.67164 4.3738 7.92926 3.85287 9.24058 3.85287H17.4812V7.14911C17.4812 8.02332 17.8284 8.86173 18.4466 9.4799C19.0648 10.0981 19.9032 10.4453 20.7774 10.4453H43.851C44.7252 10.4453 45.5637 10.0981 46.1818 9.4799C46.8 8.86173 47.1473 8.02332 47.1473 7.14911V3.85287H55.3878C56.6992 3.85287 57.9568 4.3738 58.884 5.30104C59.8113 6.22829 60.3322 7.4859 60.3322 8.79722V40.1114H45.4991C45.062 40.1114 44.6428 40.2851 44.3337 40.5942C44.0247 40.9032 43.851 41.3224 43.851 41.7596V81.2979C43.851 82.6064 44.3697 83.8615 45.2934 84.7882C46.217 85.715 47.4704 86.2379 48.7789 86.2422H52.2564C52.6299 88.0528 53.6014 89.6853 55.0147 90.8771C56.428 92.0689 58.201 92.7508 60.0487 92.8133C59.7143 93.7842 59.0858 94.627 58.2506 95.2244C57.4153 95.8219 56.4148 96.1445 55.3878 96.1474ZM63.8163 88.0996C63.3584 88.5592 62.8141 88.9235 62.2147 89.1716C61.6153 89.4197 60.9727 89.5466 60.324 89.5451C59.0126 89.5451 57.755 89.0241 56.8278 88.0969C55.9005 87.1696 55.3796 85.912 55.3796 84.6007C55.3796 83.2894 55.9005 82.0318 56.8278 81.1045C57.755 80.1773 59.0126 79.6563 60.324 79.6563C61.3018 79.6572 62.2575 79.948 63.0701 80.492C63.8827 81.0359 64.5157 81.8087 64.8892 82.7124C65.2626 83.6161 65.3597 84.6103 65.1682 85.5692C64.9766 86.5282 64.505 87.4087 63.813 88.0996H63.8163ZM102.237 88.1194C101.78 88.5783 101.237 88.9423 100.639 89.1903C100.041 89.4384 99.4 89.5657 98.7526 89.5648C97.4412 89.5648 96.1836 89.0439 95.2564 88.1167C94.3291 87.1894 93.8082 85.9318 93.8082 84.6205C93.8082 83.3092 94.3291 82.0515 95.2564 81.1243C96.1836 80.197 97.4412 79.6761 98.7526 79.6761C99.7304 79.677 100.686 79.9678 101.499 80.5117C102.311 81.0557 102.944 81.8284 103.318 82.7322C103.691 83.6359 103.788 84.6301 103.597 85.589C103.405 86.5479 102.934 87.4285 102.242 88.1194H102.237ZM108.625 82.979H106.828C106.445 81.1192 105.433 79.4482 103.962 78.2475C102.491 77.0467 100.651 76.3895 98.7526 76.3865H98.7443C96.8452 76.3883 95.0048 77.045 93.5336 78.246C92.0624 79.447 91.0505 81.1186 90.6686 82.979H68.3997C68.0172 81.1189 67.0051 79.4476 65.5341 78.2467C64.063 77.0459 62.2229 76.3889 60.324 76.3865H60.3157C58.4166 76.3883 56.5762 77.045 55.105 78.246C53.6338 79.447 52.6219 81.1186 52.2399 82.979H48.7789C48.3447 82.9746 47.9297 82.7991 47.6241 82.4904C47.3186 82.1818 47.1472 81.7651 47.1473 81.3308V73.0738H90.512C90.9491 73.0738 91.3683 72.9001 91.6774 72.591C91.9865 72.282 92.1601 71.8628 92.1601 71.4257V59.9053H96.493L98.3883 61.5913C97.589 61.6835 96.8509 62.0648 96.3132 62.6635C95.7756 63.2621 95.4755 64.0368 95.4695 64.8414L95.4563 69.7858C95.4563 70.66 95.8036 71.4984 96.4218 72.1166C97.0399 72.7347 97.8784 73.082 98.7526 73.082H110.289V81.3226C110.283 81.7614 110.106 82.1805 109.795 82.4901C109.484 82.7996 109.064 82.9751 108.625 82.979Z" fill="#F8F8FC"/>
<path d="M51.6451 62.1771C51.2935 62.1771 51.0072 62.0716 50.7862 61.8606C50.5752 61.6396 50.4697 61.3533 50.4697 61.0017V52.5634C50.4697 52.2118 50.5652 51.9405 50.756 51.7497C50.9469 51.5588 51.2181 51.4634 51.5697 51.4634H56.7533C57.135 51.4634 57.4163 51.5387 57.5971 51.6894C57.7779 51.8401 57.8684 52.0762 57.8684 52.3976C57.8684 52.709 57.7779 52.9401 57.5971 53.0908C57.4163 53.2415 57.135 53.3168 56.7533 53.3168H52.7903V55.7579H56.4519C56.8337 55.7579 57.1149 55.8332 57.2958 55.9839C57.4766 56.1346 57.567 56.3707 57.567 56.6921C57.567 57.0036 57.4766 57.2346 57.2958 57.3853C57.1149 57.536 56.8337 57.6113 56.4519 57.6113H52.7903V61.0017C52.7903 61.3634 52.6848 61.6497 52.4738 61.8606C52.2729 62.0716 51.9967 62.1771 51.6451 62.1771Z" fill="#F8F8FC"/>
<path d="M67.8025 60.5949C67.9532 60.8159 68.0285 61.0319 68.0285 61.2428C68.0285 61.5241 67.913 61.7552 67.682 61.936C67.4609 62.1168 67.1998 62.2072 66.8984 62.2072C66.7075 62.2072 66.5217 62.162 66.3409 62.0716C66.16 61.9812 66.0093 61.8405 65.8888 61.6497L63.8998 58.6963C63.729 58.4351 63.5482 58.2492 63.3573 58.1387C63.1664 58.0182 62.9253 57.9579 62.634 57.9579H61.4135V61.0017C61.4135 61.3634 61.308 61.6497 61.097 61.8606C60.8961 62.0716 60.6198 62.1771 60.2683 62.1771C59.9066 62.1771 59.6203 62.0716 59.4093 61.8606C59.1984 61.6497 59.0929 61.3634 59.0929 61.0017V52.5634C59.0929 52.2118 59.1883 51.9405 59.3792 51.7497C59.5701 51.5588 59.8413 51.4634 60.1929 51.4634H63.9751C65.2208 51.4634 66.16 51.7396 66.7929 52.2921C67.4358 52.8346 67.7573 53.6232 67.7573 54.6579C67.7573 55.4716 67.5313 56.1497 67.0792 56.6921C66.6272 57.2346 65.9893 57.5912 65.1655 57.762C65.4669 57.8223 65.7331 57.9428 65.9641 58.1237C66.2052 58.2944 66.4363 58.5456 66.6573 58.8771L67.8025 60.5949ZM63.6285 56.1798C64.3016 56.1798 64.7888 56.0643 65.0902 55.8332C65.3915 55.5921 65.5422 55.2205 65.5422 54.7182C65.5422 54.2058 65.3915 53.8342 65.0902 53.6031C64.7888 53.3721 64.3016 53.2565 63.6285 53.2565H61.3833V56.1798H63.6285Z" fill="#F8F8FC"/>
<path d="M70.7585 62.0867C70.4069 62.0867 70.1357 61.9912 69.9448 61.8004C69.7539 61.6095 69.6585 61.3383 69.6585 60.9867V52.5634C69.6585 52.2118 69.7539 51.9405 69.9448 51.7497C70.1357 51.5588 70.4069 51.4634 70.7585 51.4634H76.0928C76.8361 51.4634 77.2078 51.7647 77.2078 52.3675C77.2078 52.9803 76.8361 53.2867 76.0928 53.2867H71.9489V55.773H75.7914C76.5348 55.773 76.9065 56.0794 76.9065 56.6921C76.9065 57.2949 76.5348 57.5963 75.7914 57.5963H71.9489V60.2634H76.0928C76.8361 60.2634 77.2078 60.5698 77.2078 61.1826C77.2078 61.7853 76.8361 62.0867 76.0928 62.0867H70.7585Z" fill="#F8F8FC"/>
<path d="M79.6907 62.0867C79.3391 62.0867 79.0679 61.9912 78.877 61.8004C78.6862 61.6095 78.5907 61.3383 78.5907 60.9867V52.5634C78.5907 52.2118 78.6862 51.9405 78.877 51.7497C79.0679 51.5588 79.3391 51.4634 79.6907 51.4634H85.025C85.7683 51.4634 86.14 51.7647 86.14 52.3675C86.14 52.9803 85.7683 53.2867 85.025 53.2867H80.8811V55.773H84.7236C85.467 55.773 85.8387 56.0794 85.8387 56.6921C85.8387 57.2949 85.467 57.5963 84.7236 57.5963H80.8811V60.2634H85.025C85.7683 60.2634 86.14 60.5698 86.14 61.1826C86.14 61.7853 85.7683 62.0867 85.025 62.0867H79.6907Z" fill="#F8F8FC"/>
</svg>
