<svg width="100" height="100" viewBox="0 0 100 100" fill="none" xmlns="http://www.w3.org/2000/svg">
<g clip-path="url(#clip0)">
<path d="M78.3336 0H21.6668C20.7469 0 20.0002 0.74668 20.0002 1.6666V98.3332C20.0002 99.2531 20.7469 99.9998 21.6668 99.9998H78.3334C79.2534 99.9998 80 99.2531 80 98.3332V1.6666C80.0002 0.74668 79.2536 0 78.3336 0ZM76.6668 96.6666H23.3336V3.3334H76.667V96.6666H76.6668Z" fill="#F8F8FC"/>
<path d="M71.6668 6.66699H28.3336C27.4137 6.66699 26.667 7.41367 26.667 8.33359V98.3336C26.667 99.2535 27.4137 100 28.3336 100H71.667C72.5869 100 73.3336 99.2535 73.3336 98.3336V8.33359C73.3336 7.41367 72.5869 6.66699 71.6668 6.66699ZM70.0002 96.667H30.0002V10.0004H70.0002V96.667Z" fill="#F8F8FC"/>
<path d="M98.3334 96.666H1.6666C0.74668 96.666 0 97.4127 0 98.3326C0 99.2525 0.74668 99.9994 1.6666 99.9994H98.3332C99.2531 99.9994 99.9998 99.2527 99.9998 98.3328C99.9998 97.4129 99.2533 96.666 98.3334 96.666Z" fill="#F8F8FC"/>
<path d="M41.6667 51.666H35.0001C34.0802 51.666 33.3335 52.4127 33.3335 53.3326C33.3335 54.2525 34.0802 54.9992 35.0001 54.9992H41.6667C42.5866 54.9992 43.3333 54.2525 43.3333 53.3326C43.3335 52.4127 42.5868 51.666 41.6667 51.666Z" fill="#F8F8FC"/>
<path d="M65.0001 13.333H35.0001C34.0802 13.333 33.3335 14.0797 33.3335 14.9996V46.6662C33.3335 47.5861 34.0802 48.3328 35.0001 48.3328H65.0001C65.92 48.3328 66.6667 47.5861 66.6667 46.6662V14.9996C66.6667 14.0797 65.92 13.333 65.0001 13.333ZM63.3335 44.9996H36.6667V16.6662H63.3333V44.9996H63.3335Z" fill="#F8F8FC"/>
<path d="M65.0001 58.333H35.0001C34.0802 58.333 33.3335 59.0797 33.3335 59.9996V91.6662C33.3335 92.5861 34.0802 93.3328 35.0001 93.3328H65.0001C65.92 93.3328 66.6667 92.5861 66.6667 91.6662V59.9996C66.6667 59.0797 65.92 58.333 65.0001 58.333ZM63.3335 89.9996H36.6667V61.6662H63.3333V89.9996H63.3335Z" fill="#F8F8FC"/>
</g>
<defs>
<clipPath id="clip0">
<rect width="100" height="100" fill="white"/>
</clipPath>
</defs>
</svg>
