<svg width="100" height="100" viewBox="0 0 100 100" fill="none" xmlns="http://www.w3.org/2000/svg">
<path d="M71.5627 66.2344C77.5968 61.7088 82.0541 55.3993 84.303 48.1998C86.552 41.0002 86.4787 33.2755 84.0935 26.1199C81.7083 18.9644 77.1321 12.7406 71.0132 8.33036C64.8943 3.92009 57.5429 1.54688 50.0002 1.54688C42.4575 1.54688 35.1061 3.92009 28.9872 8.33036C22.8683 12.7406 18.2921 18.9644 15.9069 26.1199C13.5217 33.2755 13.4484 41.0002 15.6974 48.1998C17.9463 55.3993 22.4036 61.7088 28.4377 66.2344L9.82832 84.8281C9.60056 85.0578 9.44968 85.3525 9.3965 85.6715C9.34333 85.9906 9.39048 86.3183 9.53145 86.6094C9.6708 86.8978 9.89543 87.1364 10.1749 87.2929C10.4544 87.4494 10.7752 87.5163 11.0939 87.4844L23.4377 86.125V96.875C23.4392 97.1835 23.5321 97.4846 23.7045 97.7404C23.8768 97.9962 24.1211 98.1953 24.4064 98.3125C24.5919 98.4 24.7952 98.4428 25.0002 98.4375C25.2058 98.4387 25.4097 98.3993 25.6001 98.3215C25.7904 98.2438 25.9636 98.1292 26.1096 97.9844L50.0002 74.0781L73.8908 97.9844C74.0368 98.1292 74.21 98.2438 74.4003 98.3215C74.5907 98.3993 74.7946 98.4387 75.0002 98.4375C75.2052 98.4428 75.4085 98.4 75.5939 98.3125C75.8793 98.1953 76.1235 97.9962 76.2959 97.7404C76.4683 97.4846 76.5612 97.1835 76.5627 96.875V86.125L88.8908 87.4844C89.2095 87.5163 89.5304 87.4494 89.8099 87.2929C90.0893 87.1364 90.314 86.8978 90.4533 86.6094C90.5943 86.3183 90.6414 85.9906 90.5883 85.6715C90.5351 85.3525 90.3842 85.0578 90.1564 84.8281L71.5627 66.2344ZM17.1877 37.5C17.1877 31.0103 19.1121 24.6663 22.7176 19.2704C26.3231 13.8744 31.4477 9.6687 37.4434 7.1852C43.4391 4.7017 50.0366 4.05191 56.4016 5.31798C62.7666 6.58406 68.6132 9.70915 73.2021 14.2981C77.791 18.887 80.9161 24.7336 82.1822 31.0986C83.4483 37.4636 82.7985 44.0611 80.315 50.0568C77.8315 56.0525 73.6258 61.1771 68.2298 64.7826C62.8339 68.3881 56.4899 70.3125 50.0002 70.3125C41.2978 70.3125 32.9518 66.8555 26.7983 60.7019C20.6447 54.5484 17.1877 46.2024 17.1877 37.5ZM26.0471 83.2031C25.8817 83.0584 25.6877 82.9503 25.4777 82.8856C25.2677 82.821 25.0464 82.8014 24.8283 82.8281L15.1877 83.8906L31.0627 68.0156C35.7026 70.9257 40.9554 72.7176 46.4065 73.25L26.5627 93.1094V84.375C26.5644 84.1543 26.5193 83.9358 26.4304 83.7338C26.3416 83.5318 26.2109 83.351 26.0471 83.2031ZM75.1721 82.8125C74.954 82.7858 74.7327 82.8054 74.5227 82.87C74.3127 82.9346 74.1187 83.0428 73.9533 83.1875C73.7875 83.3371 73.6557 83.5205 73.5667 83.7253C73.4778 83.9302 73.4338 84.1517 73.4377 84.375V93.1094L53.5939 73.25C59.045 72.7176 64.2978 70.9257 68.9377 68.0156L84.8127 83.8906L75.1721 82.8125Z" fill="#F8F8FC"/>
<path d="M79.6878 37.5C79.6878 31.6284 77.9466 25.8886 74.6845 21.0065C71.4224 16.1244 66.7858 12.3193 61.3612 10.0723C55.9365 7.82536 49.9673 7.23745 44.2085 8.38295C38.4497 9.52845 33.1599 12.3559 29.008 16.5078C24.8562 20.6597 22.0287 25.9495 20.8832 31.7083C19.7377 37.4671 20.3256 43.4362 22.5726 48.8609C24.8196 54.2856 28.6247 58.9222 33.5068 62.1843C38.3888 65.4464 44.1286 67.1875 50.0003 67.1875C57.8739 67.1875 65.425 64.0597 70.9925 58.4922C76.56 52.9248 79.6878 45.3736 79.6878 37.5ZM24.6096 29.6875H40.6253C40.8309 29.6887 41.0347 29.6493 41.2251 29.5715C41.4155 29.4938 41.5886 29.3792 41.7346 29.2344L47.9846 22.9844C48.1294 22.8384 48.244 22.6652 48.3218 22.4749C48.3995 22.2845 48.4389 22.0807 48.4378 21.875V17.1875C49.2666 17.1875 50.0614 17.5168 50.6475 18.1028C51.2335 18.6889 51.5628 19.4837 51.5628 20.3125V28.125C51.5628 28.5394 51.7274 28.9368 52.0204 29.2299C52.3134 29.5229 52.7109 29.6875 53.1253 29.6875H67.1878V32.8125H54.6878V35.9375H67.1878V39.0625H54.6878V42.1875H67.1878V45.3125H54.6878V48.4375H67.1878V50C67.1878 50.4144 67.0231 50.8118 66.7301 51.1049C66.4371 51.3979 66.0397 51.5625 65.6253 51.5625H47.2503L41.3284 48.6094C41.1107 48.4979 40.8699 48.439 40.6253 48.4375H25.8284C24.2514 45.007 23.4359 41.2757 23.4378 37.5C23.4412 34.8523 23.8361 32.2197 24.6096 29.6875ZM27.5003 51.5625H40.2503L46.1721 54.5156C46.3898 54.6272 46.6307 54.6861 46.8753 54.6875H65.6253C66.8685 54.6875 68.0607 54.1937 68.9398 53.3146C69.8189 52.4355 70.3128 51.2432 70.3128 50V28.125C70.3128 27.7106 70.1481 27.3132 69.8551 27.0202C69.5621 26.7271 69.1647 26.5625 68.7503 26.5625H54.6878V20.3125C54.6878 18.6549 54.0293 17.0652 52.8572 15.8931C51.6851 14.721 50.0954 14.0625 48.4378 14.0625H46.8753C46.4609 14.0625 46.0634 14.2271 45.7704 14.5202C45.4774 14.8132 45.3128 15.2106 45.3128 15.625V21.2344L39.9846 26.5625H25.8284C28.2664 21.1666 32.4374 16.74 37.679 13.9857C42.9205 11.2315 48.9321 10.3075 54.7588 11.3606C60.5855 12.4136 65.8933 15.3833 69.8393 19.798C73.7852 24.2127 76.1429 29.8193 76.538 35.7272C76.9331 41.6351 75.3429 47.5057 72.0199 52.4065C68.697 57.3073 63.8319 60.9573 58.1973 62.7769C52.5626 64.5964 46.4816 64.4811 40.92 62.4493C35.3584 60.4175 30.6351 56.5857 27.5003 51.5625Z" fill="#F8F8FC"/>
<path d="M14.0627 17.1875C14.3088 17.1967 14.5535 17.1476 14.777 17.0443C15.0005 16.9409 15.1963 16.7862 15.3487 16.5928C15.501 16.3993 15.6054 16.1726 15.6535 15.9311C15.7016 15.6896 15.6919 15.4402 15.6252 15.2032L14.2971 10.7188L16.5471 9.07817C16.7867 8.90258 16.9712 8.66234 17.0792 8.3856C17.1871 8.10887 17.2139 7.8071 17.1565 7.51567C17.108 7.21497 16.9728 6.93499 16.7674 6.71013C16.562 6.48527 16.2953 6.32536 16.0002 6.25004L12.3596 5.37504L10.7971 2.39067C10.6632 2.14262 10.4647 1.9354 10.2226 1.79098C9.98058 1.64656 9.70396 1.57031 9.42208 1.57031C9.14021 1.57031 8.86358 1.64656 8.62152 1.79098C8.37946 1.9354 8.18097 2.14262 8.04708 2.39067L6.48458 5.37504L2.75021 6.25004C2.44933 6.31999 2.17594 6.47756 1.96458 6.70282C1.75322 6.92809 1.61337 7.21095 1.56271 7.51567C1.50526 7.8071 1.53207 8.10887 1.63999 8.3856C1.74792 8.66234 1.9325 8.90258 2.17208 9.07817L4.45333 10.7188L3.12521 15.2032C3.03761 15.5152 3.0492 15.8467 3.15838 16.1519C3.26756 16.457 3.46893 16.7207 3.73458 16.9063C3.99921 17.0947 4.31598 17.196 4.64083 17.196C4.96568 17.196 5.28246 17.0947 5.54708 16.9063L9.37521 14.0625L13.1408 16.8282C13.4011 17.0447 13.7246 17.1708 14.0627 17.1875ZM11.5783 8.84379C11.3101 9.02424 11.1044 9.28344 10.9897 9.58568C10.875 9.88792 10.8568 10.2183 10.9377 10.5313L11.2658 11.6875L10.2971 10.9375C10.0295 10.742 9.70664 10.6366 9.37521 10.6366C9.04378 10.6366 8.72093 10.742 8.45333 10.9375L7.42208 11.6875L7.81271 10.5313C7.90004 10.2246 7.89146 9.89858 7.78812 9.59694C7.68477 9.29529 7.49162 9.03248 7.23458 8.84379L6.71896 8.51567L7.81271 8.23442C8.02056 8.18122 8.21523 8.08579 8.38459 7.95407C8.55395 7.82234 8.69436 7.65715 8.79708 7.46879L9.37521 6.43754L9.93771 7.46879C10.0421 7.65881 10.185 7.82501 10.3572 7.95682C10.5293 8.08863 10.727 8.18317 10.9377 8.23442L12.0471 8.51567L11.5783 8.84379Z" fill="#F8F8FC"/>
<path d="M98.4377 7.51567C98.387 7.21095 98.2472 6.92809 98.0358 6.70282C97.8245 6.47756 97.5511 6.31999 97.2502 6.25004L93.6096 5.32817L92.0471 2.34379C91.9132 2.09574 91.7147 1.88853 91.4726 1.74411C91.2306 1.59969 90.9539 1.52344 90.6721 1.52344C90.3902 1.52344 90.1136 1.59969 89.8715 1.74411C89.6294 1.88853 89.431 2.09574 89.2971 2.34379L87.7346 5.32817L84.0002 6.25004C83.7114 6.32198 83.4492 6.4749 83.2444 6.6908C83.0395 6.90671 82.9006 7.17662 82.844 7.46879C82.7865 7.76022 82.8133 8.06199 82.9212 8.33873C83.0292 8.61547 83.2137 8.85571 83.4533 9.03129L85.7033 10.6719L84.3752 15.2032C84.2876 15.5152 84.2992 15.8467 84.4084 16.1519C84.5176 16.457 84.7189 16.7207 84.9846 16.9063C85.2492 17.0947 85.566 17.196 85.8908 17.196C86.2157 17.196 86.5325 17.0947 86.7971 16.9063L90.6252 14.0625L94.3908 16.8282C94.6511 17.0447 94.9746 17.1708 95.3127 17.1875C95.5587 17.1967 95.8035 17.1476 96.027 17.0443C96.2504 16.9409 96.4463 16.7862 96.5986 16.5928C96.751 16.3993 96.8554 16.1726 96.9035 15.9311C96.9515 15.6896 96.9418 15.4402 96.8752 15.2032L95.6096 10.7188L97.8596 9.07817C98.0935 8.89879 98.272 8.65688 98.3743 8.3804C98.4766 8.10391 98.4985 7.80412 98.4377 7.51567ZM92.8596 8.84379C92.5857 9.01998 92.3737 9.27733 92.2533 9.57989C92.1328 9.88244 92.1099 10.2151 92.1877 10.5313L92.5158 11.6875L91.5471 10.9375C91.2795 10.742 90.9566 10.6366 90.6252 10.6366C90.2938 10.6366 89.9709 10.742 89.7033 10.9375L88.6721 11.6875L89.0627 10.5313C89.15 10.2246 89.1415 9.89858 89.0381 9.59694C88.9348 9.29529 88.7416 9.03248 88.4846 8.84379L88.0315 8.51567L89.0627 8.23442C89.2706 8.18122 89.4652 8.08579 89.6346 7.95407C89.8039 7.82234 89.9444 7.65715 90.0471 7.46879L90.6252 6.43754L91.1877 7.46879C91.2904 7.65715 91.4308 7.82234 91.6002 7.95407C91.7696 8.08579 91.9642 8.18122 92.1721 8.23442L93.2815 8.51567L92.8596 8.84379Z" fill="#F8F8FC"/>
</svg>
