<svg width="100" height="100" viewBox="0 0 100 100" fill="none" xmlns="http://www.w3.org/2000/svg">
<path d="M50 45.6056C49.7257 45.6056 49.4578 45.6321 49.1974 45.6804L35.79 22.4583C35.3857 21.7575 34.4894 21.5177 33.789 21.922C33.0884 22.3265 32.8484 23.2224 33.2529 23.923L46.6615 47.1472C46.0039 47.9155 45.6054 48.9118 45.6054 49.9999C45.6054 51.9095 46.8302 53.5378 48.5351 54.1425V86.8165C48.5351 87.6257 49.1908 88.2814 50 88.2814C50.8091 88.2814 51.4648 87.6257 51.4648 86.8165V54.1427C53.1697 53.538 54.3945 51.9097 54.3945 50.0001C54.3945 47.5771 52.423 45.6056 50 45.6056ZM50 51.465C49.1921 51.465 48.5351 50.8079 48.5351 50.0001C48.5351 49.1923 49.1921 48.5353 50 48.5353C50.8078 48.5353 51.4648 49.1923 51.4648 50.0001C51.4648 50.8079 50.8078 51.465 50 51.465Z" fill="#F8F8FC"/>
<path d="M85.3555 14.6445C75.9117 5.20098 63.3555 0 50 0C36.6445 0 24.0883 5.20098 14.6445 14.6445C5.20078 24.0881 0 36.6445 0 50C0 63.3555 5.20098 75.9117 14.6445 85.3555C24.0881 94.7992 36.6445 100 50 100C63.3555 100 75.9117 94.799 85.3555 85.3555C94.7992 75.9119 100 63.3555 100 50C100 36.6445 94.799 24.0883 85.3555 14.6445ZM50 97.0703C24.0453 97.0703 2.92969 75.9547 2.92969 50C2.92969 24.0453 24.0453 2.92969 50 2.92969C75.9547 2.92969 97.0703 24.0453 97.0703 50C97.0703 75.9547 75.9547 97.0703 50 97.0703Z" fill="#F8F8FC"/>
<path d="M50 14.6484C50.809 14.6484 51.4648 13.9926 51.4648 13.1836C51.4648 12.3746 50.809 11.7188 50 11.7188C49.191 11.7188 48.5352 12.3746 48.5352 13.1836C48.5352 13.9926 49.191 14.6484 50 14.6484Z" fill="#F8F8FC"/>
<path d="M31.5918 19.5801C32.4008 19.5801 33.0566 18.9242 33.0566 18.1152C33.0566 17.3062 32.4008 16.6504 31.5918 16.6504C30.7828 16.6504 30.127 17.3062 30.127 18.1152C30.127 18.9242 30.7828 19.5801 31.5918 19.5801Z" fill="#F8F8FC"/>
<path d="M18.1152 33.0566C18.9242 33.0566 19.5801 32.4008 19.5801 31.5918C19.5801 30.7828 18.9242 30.127 18.1152 30.127C17.3062 30.127 16.6504 30.7828 16.6504 31.5918C16.6504 32.4008 17.3062 33.0566 18.1152 33.0566Z" fill="#F8F8FC"/>
<path d="M13.1836 51.4648C13.9926 51.4648 14.6484 50.809 14.6484 50C14.6484 49.191 13.9926 48.5352 13.1836 48.5352C12.3746 48.5352 11.7188 49.191 11.7188 50C11.7188 50.809 12.3746 51.4648 13.1836 51.4648Z" fill="#F8F8FC"/>
<path d="M18.1152 69.873C18.9242 69.873 19.5801 69.2172 19.5801 68.4082C19.5801 67.5992 18.9242 66.9434 18.1152 66.9434C17.3062 66.9434 16.6504 67.5992 16.6504 68.4082C16.6504 69.2172 17.3062 69.873 18.1152 69.873Z" fill="#F8F8FC"/>
<path d="M31.5918 83.3496C32.4008 83.3496 33.0566 82.6938 33.0566 81.8848C33.0566 81.0758 32.4008 80.4199 31.5918 80.4199C30.7828 80.4199 30.127 81.0758 30.127 81.8848C30.127 82.6938 30.7828 83.3496 31.5918 83.3496Z" fill="#F8F8FC"/>
<path d="M68.4082 83.3496C69.2172 83.3496 69.873 82.6938 69.873 81.8848C69.873 81.0758 69.2172 80.4199 68.4082 80.4199C67.5992 80.4199 66.9434 81.0758 66.9434 81.8848C66.9434 82.6938 67.5992 83.3496 68.4082 83.3496Z" fill="#F8F8FC"/>
<path d="M81.8848 69.873C82.6938 69.873 83.3496 69.2172 83.3496 68.4082C83.3496 67.5992 82.6938 66.9434 81.8848 66.9434C81.0758 66.9434 80.4199 67.5992 80.4199 68.4082C80.4199 69.2172 81.0758 69.873 81.8848 69.873Z" fill="#F8F8FC"/>
<path d="M86.8164 51.4648C87.6254 51.4648 88.2812 50.809 88.2812 50C88.2812 49.191 87.6254 48.5352 86.8164 48.5352C86.0074 48.5352 85.3516 49.191 85.3516 50C85.3516 50.809 86.0074 51.4648 86.8164 51.4648Z" fill="#F8F8FC"/>
<path d="M81.8848 33.0566C82.6938 33.0566 83.3496 32.4008 83.3496 31.5918C83.3496 30.7828 82.6938 30.127 81.8848 30.127C81.0758 30.127 80.4199 30.7828 80.4199 31.5918C80.4199 32.4008 81.0758 33.0566 81.8848 33.0566Z" fill="#F8F8FC"/>
<path d="M68.4082 19.5801C69.2172 19.5801 69.873 18.9242 69.873 18.1152C69.873 17.3062 69.2172 16.6504 68.4082 16.6504C67.5992 16.6504 66.9434 17.3062 66.9434 18.1152C66.9434 18.9242 67.5992 19.5801 68.4082 19.5801Z" fill="#F8F8FC"/>
<path d="M81.2121 18.7879C72.875 10.4508 61.7902 5.85938 50 5.85938C39.3338 5.85938 29.0361 9.71641 21.0043 16.7195C20.3945 17.2514 20.3313 18.1766 20.8627 18.7863C21.3945 19.3963 22.3199 19.4594 22.9295 18.9277C30.4279 12.3898 40.0416 8.78906 50 8.78906C72.7238 8.78906 91.2109 27.2762 91.2109 50C91.2109 72.7238 72.7238 91.2109 50 91.2109C27.2762 91.2109 8.78906 72.7238 8.78906 50C8.78906 40.0416 12.3898 30.4279 18.9277 22.9295C19.4596 22.3197 19.3961 21.3945 18.7863 20.8627C18.177 20.3311 17.2516 20.3941 16.7195 21.0043C9.71641 29.0361 5.85938 39.3338 5.85938 50C5.85938 61.7902 10.4508 72.875 18.7879 81.2121C27.125 89.5492 38.2098 94.1406 50 94.1406C61.7902 94.1406 72.875 89.5492 81.2121 81.2121C89.5492 72.875 94.1406 61.7902 94.1406 50C94.1406 38.2098 89.5492 27.125 81.2121 18.7879Z" fill="#F8F8FC"/>
</svg>
