<svg width="1440" height="1153" viewBox="0 0 1440 1153" fill="none" xmlns="http://www.w3.org/2000/svg">
<path opacity="0.25" d="M0 1066V1110.26C57.348 1131.49 124.308 1141.02 189.6 1137.04C274.032 1131.9 353.196 1105.19 437.76 1101.18C526.368 1097.01 614.808 1117.32 699.6 1134.89C782.724 1152.11 865.56 1158.68 950.88 1147.4C994.26 1141.66 1034.7 1130.34 1076.22 1119.35C1187.39 1089.91 1335.6 1052.34 1440 1116.17V1066H0Z" fill="#0062AD"/>
<path opacity="0.5" d="M0 1066V1077.5C15.6 1092.85 33.168 1107.36 57.228 1118.41C119.292 1146.93 198 1146.74 269.496 1132.61C306.876 1125.23 341.604 1113.65 377.1 1103.66C426.204 1089.84 478.776 1070.2 534.096 1067.53C577.608 1065.46 619.176 1074.39 652.416 1090.49C690.54 1108.96 727.2 1135.58 776.772 1143.59C825.3 1151.43 874.392 1138.72 919.728 1125.93C965.064 1113.13 1009.92 1097.56 1060.03 1094.61C1131.71 1090.36 1195.97 1111.26 1262.71 1122.86C1298.95 1129.16 1333.51 1127.35 1367.22 1117.41C1394.14 1109.49 1424.82 1097.82 1440 1081.59V1066H0Z" fill="#0062AD"/>
<path d="M0 1066V1070.09C179.916 1108.91 376.908 1117.87 570.996 1096.96C622.596 1091.41 672.072 1082.33 724.128 1077.72C794.928 1071.44 859.104 1086.62 922.8 1103.47C993.516 1122.17 1063.2 1135.27 1141.44 1131.46C1245.28 1126.37 1348.39 1098.21 1440 1069.77V1066H0Z" fill="#0062AD"/>
<path opacity="0.25" d="M0 80V39.2988C57.348 19.779 124.308 11.0128 189.6 14.6793C274.032 19.401 353.196 43.9677 437.76 47.6518C526.368 51.4854 614.808 32.8098 699.6 16.6489C782.724 0.822067 865.56 -5.22728 950.88 5.14806C994.26 10.4237 1034.7 20.8342 1076.22 30.9457C1187.39 58.0183 1335.6 92.5647 1440 33.8649V80H0Z" fill="#0062AD"/>
<path opacity="0.5" d="M0 80V68.5007C15.6 53.1465 33.168 38.6432 57.228 27.5949C119.292 -0.931572 198 -0.735191 269.496 13.3898C306.876 20.7724 341.604 32.3517 377.1 42.3381C426.204 56.1577 478.776 75.796 534.096 78.4653C577.608 80.5382 619.176 71.6137 652.416 55.5103C690.54 37.0431 727.2 10.415 776.772 2.41422C825.3 -5.43383 874.392 7.28014 919.728 20.0741C965.064 32.8681 1009.92 48.4405 1060.03 51.3863C1131.71 55.6412 1195.97 34.7447 1262.71 23.1362C1298.95 16.8374 1333.51 18.6485 1367.22 28.5913C1394.14 36.5121 1424.82 48.1787 1440 64.4057V80H0Z" fill="#0062AD"/>
<path d="M0 80V75.9051C179.916 37.0867 376.908 28.1258 570.996 49.037C622.596 54.5939 672.072 63.6711 724.128 68.2825C794.928 74.5595 859.104 59.3798 922.8 42.5345C993.516 23.8345 1063.2 10.7277 1141.44 14.539C1245.28 19.6304 1348.39 47.7859 1440 76.2251V80H0Z" fill="#0062AD"/>
<rect y="80" width="1440" height="986" fill="#0062AD"/>
</svg>
