<svg width="140" height="140" viewBox="0 0 140 140" fill="none" xmlns="http://www.w3.org/2000/svg">
<path d="M48.725 34.72V19.46C46.415 15.96 46.345 12.775 48.725 9.86998C48.725 6.47498 91.355 6.47498 91.355 9.86998C92.86 12.285 93.525 14.98 91.355 18.48V35.7C93.035 38.57 93.35 41.44 91.355 44.31V54.25C93.14 56.56 93.28 59.01 91.355 61.67C91.355 61.67 86.63 67.13 70.39 67.13C54.15 67.13 48.865 62.055 48.865 62.055C46.24 59.29 46.345 56.49 48.865 53.655L48.76 43.505C46.135 41.195 46.625 38.15 48.725 34.72Z" stroke="#0062AD" stroke-width="3" stroke-miterlimit="10"/>
<path d="M48.725 19.4599C48.725 17.1149 91.355 17.1149 91.355 19.4599" stroke="#0062AD" stroke-width="3" stroke-miterlimit="10"/>
<path d="M91.355 34.895H48.725" stroke="#0062AD" stroke-width="3" stroke-miterlimit="10"/>
<path d="M48.83 43.5051C48.83 45.0801 91.39 45.0801 91.39 43.5051" stroke="#0062AD" stroke-width="3" stroke-miterlimit="10"/>
<path d="M48.9 53.6899C48.9 56.56 91.355 56.56 91.355 53.6899" stroke="#0062AD" stroke-width="3" stroke-miterlimit="10"/>
<path d="M37 71.855H51.07H95.38L103.08 74.305V137.165H37V71.855Z" stroke="#0062AD" stroke-width="3" stroke-miterlimit="10"/>
<path d="M70.425 67.165C51.875 67.165 51.875 71.855 51.875 71.855H89.99C89.99 71.855 88.94 67.165 70.425 67.165Z" stroke="#0062AD" stroke-width="3" stroke-miterlimit="10"/>
<path d="M95.485 71.855V137.165" stroke="#0062AD" stroke-width="3" stroke-miterlimit="10"/>
<path d="M45.225 137.165V100.03L46.73 98.525C47.92 97.335 49.67 96.845 51.315 97.265L66.19 100.765L80.085 97.405C82.5 96.88 85.02 97.615 86.77 99.365L87.33 99.925V136.64" stroke="#0062AD" stroke-width="3" stroke-miterlimit="10"/>
<path d="M58.14 104.51H53.24V114.1H58.14V104.51Z" stroke="#0062AD" stroke-width="3" stroke-miterlimit="10"/>
<path d="M79.07 104.51H74.17V114.1H79.07V104.51Z" stroke="#0062AD" stroke-width="3" stroke-miterlimit="10"/>
<path d="M55.655 21.0349V27.5799" stroke="#0062AD" stroke-width="3" stroke-miterlimit="10" stroke-linecap="round"/>
<path d="M55.725 30.905V31.885" stroke="#0062AD" stroke-width="3" stroke-miterlimit="10" stroke-linecap="round"/>
<path d="M89.99 78.1201V89.3551" stroke="#0062AD" stroke-width="3" stroke-miterlimit="10" stroke-linecap="round"/>
<path d="M89.99 94.5V96.145" stroke="#0062AD" stroke-width="3" stroke-miterlimit="10" stroke-linecap="round"/>
<path d="M55.725 47.9851V50.9601" stroke="#0062AD" stroke-width="3" stroke-miterlimit="10" stroke-linecap="round"/>
<path d="M85.51 47.9851V50.9601" stroke="#0062AD" stroke-width="3" stroke-miterlimit="10" stroke-linecap="round"/>
<path d="M85.51 22.085V31.395" stroke="#0062AD" stroke-width="3" stroke-miterlimit="10" stroke-linecap="round"/>
</svg>
