<svg width="140" height="140" viewBox="0 0 140 140" fill="none" xmlns="http://www.w3.org/2000/svg">
<path d="M84.2859 42.4549H49.9523C47.302 42.4549 45.1335 40.2929 45.1335 37.6503V12.3859C45.1335 9.74338 47.302 7.5813 49.9523 7.5813H84.2859C86.9362 7.5813 89.1047 9.74338 89.1047 12.3859V37.6903C89.1047 40.2929 86.9362 42.4549 84.2859 42.4549Z" stroke="#A0CEF1" stroke-width="3" stroke-miterlimit="10"/>
<path d="M36.5415 91.48V43.2358C36.5415 40.5824 38.8462 38.4114 41.663 38.4114H46.1444" stroke="#A0CEF1" stroke-width="3" stroke-miterlimit="10"/>
<path d="M89.6858 38.4114H92.349C95.0123 38.4114 97.1913 40.5921 97.1913 43.2574V107.346C97.1913 110.012 95.0123 112.192 92.349 112.192H41.3838C36.5415 112.435 36.5415 107.993 36.5415 105.327" stroke="#A0CEF1" stroke-width="3" stroke-miterlimit="10"/>
<path d="M85.5668 112.202V131.838C85.5668 134.683 83.1017 136.967 80.1112 136.967H53.1162C50.1258 136.967 47.6606 134.643 47.6606 131.838V112.202" stroke="#A0CEF1" stroke-width="3" stroke-miterlimit="10"/>
<path d="M53.236 86.8023L50.3423 87.6808L21.6067 96.4254C20.3206 96.8247 19.2756 97.783 18.7532 99.0208L9.67029 121.142C6.85701 128.05 18.9541 132.961 21.8076 126.053L28.238 108.444C28.7202 107.166 29.7652 106.208 31.0914 105.849L57.7373 98.7413C64.8106 96.1459 60.3496 84.167 53.236 86.8023Z" stroke="#A0CEF1" stroke-width="3" stroke-miterlimit="10"/>
<path d="M51.704 14.6572V30.8305" stroke="#A0CEF1" stroke-width="3" stroke-miterlimit="10" stroke-linecap="round"/>
<path d="M44.1228 51.0471V76.3179" stroke="#A0CEF1" stroke-width="3" stroke-miterlimit="10" stroke-linecap="round"/>
<path d="M44.1228 82.3826V83.8988" stroke="#A0CEF1" stroke-width="3" stroke-miterlimit="10" stroke-linecap="round"/>
<path d="M89.6101 78.8447V96.0288" stroke="#A0CEF1" stroke-width="3" stroke-miterlimit="10" stroke-linecap="round"/>
<path d="M89.6101 100.578V105.126" stroke="#A0CEF1" stroke-width="3" stroke-miterlimit="10" stroke-linecap="round"/>
<path d="M52.2094 35.3792V36.8954" stroke="#A0CEF1" stroke-width="3" stroke-miterlimit="10" stroke-linecap="round"/>
<path d="M93.6534 117.762H85.5668V126.859H93.6534V117.762Z" stroke="#A0CEF1" stroke-width="3" stroke-miterlimit="10" stroke-linecap="round"/>
<path d="M47.6607 117.762H40.0795V126.859H47.6607V117.762Z" stroke="#A0CEF1" stroke-width="3" stroke-miterlimit="10" stroke-linecap="round"/>
<path d="M74.4476 122.311L80.0072 124.763V133.43L74.4476 130.977V122.311Z" stroke="#A0CEF1" stroke-width="3" stroke-miterlimit="10" stroke-linecap="round"/>
<path d="M61.3069 122.311L56.7582 124.763V133.43L61.3069 130.977V122.311Z" stroke="#A0CEF1" stroke-width="3" stroke-miterlimit="10" stroke-linecap="round"/>
<path d="M47.6606 117.762C47.6606 123.153 85.5668 123.153 85.5668 117.762" stroke="#A0CEF1" stroke-width="3" stroke-miterlimit="10" stroke-linecap="round"/>
<path d="M80.0072 129.386C83.3582 128.825 85.5668 127.983 85.5668 126.859" stroke="#A0CEF1" stroke-width="3" stroke-miterlimit="10" stroke-linecap="round"/>
<path d="M61.8123 131.029C66.2338 131.662 69.6772 131.535 73.9422 130.397" stroke="#A0CEF1" stroke-width="3" stroke-miterlimit="10" stroke-linecap="round"/>
<path d="M47.6606 126.859C47.6606 128.286 50.7751 129.268 55.2419 129.892" stroke="#A0CEF1" stroke-width="3" stroke-miterlimit="10" stroke-linecap="round"/>
<path d="M56.0706 99.0614C61.0611 97.3299 56.6944 85.3708 51.704 87.1022" stroke="#A0CEF1" stroke-width="3" stroke-miterlimit="10"/>
</svg>
