<svg width="140" height="140" viewBox="0 0 140 140" fill="none" xmlns="http://www.w3.org/2000/svg">
<path d="M41.9741 133.428L37.8763 129.319C34.4614 125.038 34.6663 120.655 37.8763 116.136V80.9351C34.4956 77.4767 34.598 74.4634 37.8763 71.9295V56.8289C34.1541 53.1308 35.0078 49.9121 37.8763 46.8646C33.6077 39.0575 50.7845 33.9212 62.4975 28.1343V18.5467C60.9608 18.5467 60.9608 14.3349 62.4975 14.3349V8.61656C62.4975 6.56206 75.9862 6.56206 75.9862 8.61656V14.3349C77.5229 14.3349 77.5229 18.5467 75.9862 18.5467V28.1001C87.6992 33.9212 104.876 39.0232 100.607 46.8303C103.476 49.8436 104.33 53.0623 100.607 56.7947V71.8953C103.886 74.4291 103.988 77.4082 100.607 80.9008V116.101C103.817 120.621 104.022 125.038 100.607 129.284L96.5095 133.393C96.4754 138.153 41.9741 138.153 41.9741 133.428Z" stroke="#A0CEF1" stroke-width="3" stroke-miterlimit="10"/>
<path d="M37.9061 47.0037C37.9061 49.0253 100.578 49.0253 100.578 47.0037" stroke="#A0CEF1" stroke-width="3" stroke-miterlimit="10"/>
<path d="M37.9061 57.1118C37.9061 59.8074 100.578 59.8074 100.578 57.1118" stroke="#A0CEF1" stroke-width="3" stroke-miterlimit="10"/>
<path d="M37.9061 71.769C37.9061 75.1385 100.578 75.1385 100.578 71.769" stroke="#A0CEF1" stroke-width="3" stroke-miterlimit="10"/>
<path d="M37.9061 80.8665C37.9061 84.9098 100.578 84.9098 100.578 80.8665" stroke="#A0CEF1" stroke-width="3" stroke-miterlimit="10"/>
<path d="M37.9061 116.246C37.9061 120.289 100.578 120.289 100.578 116.246" stroke="#A0CEF1" stroke-width="3" stroke-miterlimit="10"/>
<path d="M37.9061 128.881C37.9061 132.25 100.578 132.25 100.578 128.881" stroke="#A0CEF1" stroke-width="3" stroke-miterlimit="10"/>
<path d="M45.4873 89.4585V105.632" stroke="#A0CEF1" stroke-width="3" stroke-miterlimit="10" stroke-linecap="round"/>
<path d="M96.0289 90.9746V103.61" stroke="#A0CEF1" stroke-width="3" stroke-miterlimit="10" stroke-linecap="round"/>
<path d="M45.4873 109.17V111.191" stroke="#A0CEF1" stroke-width="3" stroke-miterlimit="10" stroke-linecap="round"/>
<path d="M96.0289 107.148V110.18" stroke="#A0CEF1" stroke-width="3" stroke-miterlimit="10" stroke-linecap="round"/>
<path d="M96.0289 69.2419V70.2528" stroke="#A0CEF1" stroke-width="3" stroke-miterlimit="10" stroke-linecap="round"/>
<path d="M72.7798 18.1951V18.7005" stroke="#A0CEF1" stroke-width="3" stroke-miterlimit="10" stroke-linecap="round"/>
<path d="M45.4873 63.6824V68.2311" stroke="#A0CEF1" stroke-width="3" stroke-miterlimit="10" stroke-linecap="round"/>
<path d="M72.7798 22.2383V26.2816" stroke="#A0CEF1" stroke-width="3" stroke-miterlimit="10" stroke-linecap="round"/>
<path d="M96.0289 61.6606V65.704" stroke="#A0CEF1" stroke-width="3" stroke-miterlimit="10" stroke-linecap="round"/>
</svg>
