<svg width="70" height="70" viewBox="0 0 70 70" fill="none" xmlns="http://www.w3.org/2000/svg">
<path d="M49.5693 23.5923L48.8203 21.1272C47.8689 18.3269 44.8276 16.8281 42.0273 17.7796C40.452 18.3148 39.2149 19.5519 38.6797 21.1272L37.9307 23.5923C37.3004 25.6713 37.1681 27.8695 37.5445 30.009C37.8878 31.8103 39.0314 33.3579 40.6525 34.2148L39.8137 52.9667C39.7014 54.0133 40.0409 55.0582 40.747 55.839C42.2656 57.5 44.8433 57.6155 46.5044 56.097C46.5942 56.0149 46.6802 55.9288 46.7623 55.839C47.4527 55.0804 47.7916 54.0661 47.6957 53.0448L46.8522 34.2125C48.4711 33.3551 49.6128 31.8086 49.9555 30.009C50.3319 27.8695 50.1996 25.6713 49.5693 23.5923ZM47.6572 29.603C47.4046 30.8971 46.4823 31.9589 45.2363 32.3902C44.7634 32.5679 44.4588 33.0299 44.4815 33.5347L45.3682 53.2292C45.409 53.6155 45.2815 54.0006 45.0182 54.2862C44.3157 54.9816 43.1843 54.9816 42.4818 54.2862C42.2053 53.9776 42.0798 53.5622 42.1388 53.1522L43.0185 33.5347C43.0413 33.0299 42.7366 32.5679 42.2637 32.3902C41.0177 31.9589 40.0954 30.8971 39.8428 29.603C39.5308 27.8267 39.6407 26.0019 40.1637 24.276L40.9127 21.8097C41.4922 20.2427 43.2323 19.4422 44.7994 20.0217C45.6279 20.3281 46.2809 20.9813 46.5873 21.8097L47.3363 24.276C47.8587 26.0021 47.9687 27.8267 47.6572 29.603Z" fill="#0062AD"/>
<path d="M31.5 17.5C30.8557 17.5 30.3333 18.0224 30.3333 18.6667V28.6837L27.1752 31.8418C26.9415 32.0746 26.8173 32.3956 26.8333 32.725L27.8542 53.1417C27.8785 53.5819 27.7187 54.0126 27.4132 54.3305C26.7746 54.9748 25.7345 54.9795 25.09 54.3407C25.0865 54.3374 25.0832 54.3339 25.0798 54.3305C24.7742 54.0126 24.6145 53.5819 24.6388 53.1417L25.6667 32.725C25.683 32.3957 25.5592 32.0749 25.326 31.8418L22.1667 28.6837V18.6667C22.1667 18.0224 21.6443 17.5 21 17.5C20.3557 17.5 19.8333 18.0224 19.8333 18.6667V29.1667C19.8333 29.4761 19.9564 29.7728 20.1752 29.9915L23.3088 33.1263L22.3137 53.0285C22.2078 55.2024 23.8843 57.0507 26.0582 57.1566C28.2322 57.2625 30.0805 55.586 30.1863 53.412C30.1926 53.2843 30.1926 53.1564 30.1863 53.0286L29.1912 33.1265L32.3248 29.9916C32.5436 29.7729 32.6667 29.4763 32.6667 29.1668V18.6668C32.6667 18.0224 32.1443 17.5 31.5 17.5Z" fill="#0062AD"/>
<path d="M24.5 17.5C23.8557 17.5 23.3333 18.0224 23.3333 18.6667V28C23.3333 28.6443 23.8557 29.1667 24.5 29.1667C25.1443 29.1667 25.6667 28.6443 25.6667 28V18.6667C25.6667 18.0224 25.1443 17.5 24.5 17.5Z" fill="#0062AD"/>
<path d="M28 17.5C27.3557 17.5 26.8333 18.0224 26.8333 18.6667V28C26.8333 28.6443 27.3557 29.1667 28 29.1667C28.6443 29.1667 29.1667 28.6443 29.1667 28V18.6667C29.1667 18.0224 28.6443 17.5 28 17.5Z" fill="#0062AD"/>
<path d="M35 0C15.6701 0 0 15.6701 0 35C0 54.3299 15.6701 70 35 70C54.3299 70 70 54.3299 70 35C69.9781 15.6791 54.3209 0.021875 35 0ZM35 67.6667C16.9587 67.6667 2.33333 53.0413 2.33333 35C2.33333 16.9587 16.9587 2.33333 35 2.33333C53.0413 2.33333 67.6667 16.9587 67.6667 35C67.6461 53.0327 53.0327 67.6461 35 67.6667Z" fill="#0062AD"/>
<path d="M38.7872 56.9001C38.7246 56.2589 38.154 55.7897 37.5126 55.8523C37.4976 55.8537 37.4825 55.8555 37.4675 55.8575L37.4722 55.8564C35.8297 56.0471 34.1704 56.0471 32.5278 55.8564C31.8876 55.7813 31.3079 56.2393 31.2328 56.8795C31.1577 57.5197 31.6158 58.0994 32.256 58.1745C34.0776 58.3873 35.9177 58.3873 37.7393 58.1745C38.3806 58.1121 38.8497 57.5415 38.7872 56.9001Z" fill="#0062AD"/>
<path d="M52.85 19.9663C52.436 19.4727 51.7001 19.4081 51.2065 19.8223C51.2049 19.8236 51.2033 19.825 51.2015 19.8263C50.709 20.2417 50.6463 20.9776 51.0615 21.4702C58.0958 29.8206 57.5576 42.1682 49.8237 49.875C49.3672 50.3299 49.3659 51.0688 49.8207 51.5253C50.2756 51.9817 51.0145 51.983 51.471 51.5282C60.066 42.9659 60.6653 29.2456 52.85 19.9663Z" fill="#0062AD"/>
<path d="M27.1822 15.421C27.1815 15.421 27.1807 15.4208 27.18 15.4208C27.1788 15.4208 27.1777 15.421 27.1763 15.421H27.1822Z" fill="#0062AD"/>
<path d="M40.5032 12.3188C35.9437 11.2261 31.1618 11.5198 26.7703 13.1623C26.1672 13.3891 25.8622 14.062 26.089 14.665C26.2599 15.1196 26.6945 15.4204 27.18 15.4208C27.3196 15.4201 27.4578 15.3946 27.5882 15.3452C31.5429 13.8663 35.849 13.6022 39.9548 14.5868C40.5812 14.7382 41.2116 14.3533 41.363 13.727C41.5144 13.1006 41.1295 12.4702 40.5032 12.3188Z" fill="#0062AD"/>
<path d="M20.1238 49.8167C16.1909 45.8904 13.9866 40.5574 14 35C13.9885 30.56 15.3949 26.2322 18.0145 22.6473C18.4017 22.1322 18.298 21.4009 17.7829 21.0137C17.2678 20.6265 16.5365 20.7302 16.1493 21.2453C16.1424 21.2545 16.1357 21.2637 16.1292 21.273C9.38394 30.5462 10.3765 43.3462 18.4707 51.4687C18.9268 51.9251 19.6668 51.9254 20.1233 51.4693C20.5797 51.0131 20.58 50.2731 20.1238 49.8167Z" fill="#0062AD"/>
</svg>
