<svg width="70" height="62" viewBox="0 0 70 62" fill="none" xmlns="http://www.w3.org/2000/svg">
<path d="M66.3086 7.30553H65.0437V4.48584C65.0427 3.50713 64.6534 2.56879 63.9614 1.87674C63.2693 1.18469 62.331 0.795447 61.3523 0.794434H57.3874C56.4088 0.795592 55.4706 1.1849 54.7787 1.87693C54.0867 2.56897 53.6976 3.50722 53.6966 4.48584V14.0562H43.4935V13.7521C43.5012 12.8772 43.186 12.0303 42.6083 11.3733C42.0305 10.7164 41.2308 10.2955 40.3621 10.1914C39.8799 10.1458 39.3934 10.2009 38.9336 10.3533C38.4738 10.5057 38.0507 10.7521 37.6912 11.0768C37.6296 11.1333 37.57 11.1916 37.5123 11.2518C37.4551 11.1916 37.3955 11.1333 37.3335 11.0768C36.9744 10.7513 36.5513 10.5044 36.0913 10.352C35.6312 10.1995 35.1444 10.1448 34.662 10.1914C33.8341 10.2763 33.0665 10.6631 32.5057 11.278C32.184 10.9317 31.7946 10.6551 31.3617 10.4653C30.9287 10.2756 30.4615 10.1767 29.9888 10.1749C29.5161 10.1731 29.048 10.2684 28.6137 10.4549C28.1793 10.6413 27.7878 10.915 27.4635 11.2589C26.9868 10.7547 26.3696 10.4053 25.692 10.2559C25.0143 10.1066 24.3075 10.1641 23.6629 10.4212C23.0184 10.6782 22.4659 11.1229 22.077 11.6976C21.6881 12.2722 21.4808 12.9505 21.4818 13.6444V14.0562H16.304V4.48584C16.3028 3.50717 15.9135 2.56892 15.2215 1.8769C14.5295 1.18488 13.5912 0.795591 12.6126 0.794434H8.64773C7.66902 0.795447 6.73069 1.18469 6.03864 1.87674C5.34658 2.56879 4.95734 3.50713 4.95633 4.48584V7.30553H3.69141C2.71274 7.30669 1.77449 7.69597 1.08247 8.38799C0.390445 9.08002 0.00115784 10.0183 0 10.9969L0 27.1642C0.00115784 28.1429 0.390445 29.0811 1.08247 29.7731C1.77449 30.4652 2.71274 30.8544 3.69141 30.8556H4.95633V33.6753C4.95734 34.654 5.34658 35.5923 6.03864 36.2844C6.73069 36.9764 7.66902 37.3657 8.64773 37.3667H12.6126C13.5912 37.3655 14.5295 36.9763 15.2215 36.2842C15.9135 35.5922 16.3028 34.654 16.304 33.6753V24.105H21.4922C21.4922 24.1258 21.4922 24.1471 21.4955 24.1679C21.4885 24.2091 21.4843 24.2508 21.4829 24.2926V28.2301C21.4841 29.9726 21.9258 31.6866 22.767 33.2126L26.5076 39.9884V60.2485C26.5076 60.5023 26.6084 60.7457 26.7879 60.9252C26.9674 61.1047 27.2108 61.2055 27.4646 61.2055H42.5365C42.7903 61.2055 43.0337 61.1047 43.2132 60.9252C43.3927 60.7457 43.4935 60.5023 43.4935 60.2485V40.042L47.4141 34.3906C48.1348 33.3547 48.5204 32.1225 48.5187 30.8605V24.1033H53.6971V33.6737C53.6981 34.6523 54.0873 35.5905 54.7792 36.2826C55.4712 36.9746 56.4094 37.3639 57.388 37.3651H61.3528C62.3315 37.364 63.2699 36.9748 63.9619 36.2828C64.654 35.5907 65.0432 34.6524 65.0442 33.6737V30.8556H66.3091C67.2878 30.8544 68.2261 30.4652 68.9181 29.7731C69.6101 29.0811 69.9994 28.1429 70.0005 27.1642V10.9969C69.9994 10.0182 69.61 9.07984 68.9179 8.3878C68.2257 7.69576 67.2874 7.30654 66.3086 7.30553ZM38.4694 13.646C38.4694 13.4286 38.5149 13.2137 38.6031 13.015C38.6912 12.8164 38.82 12.6384 38.9812 12.4925C39.1424 12.3467 39.3324 12.2363 39.5388 12.1684C39.7453 12.1005 39.9637 12.0766 40.18 12.0983C40.5759 12.1542 40.9373 12.3538 41.1954 12.6591C41.4535 12.9645 41.5902 13.3541 41.5795 13.7537V14.0578H38.3764C38.4378 13.9292 38.4696 13.7885 38.4694 13.646ZM34.8441 12.0983C34.8961 12.0934 34.9486 12.0907 35 12.0907C35.4124 12.0908 35.808 12.2547 36.0996 12.5464C36.3913 12.838 36.5552 13.2335 36.5553 13.646C36.5551 13.7885 36.5868 13.9292 36.6483 14.0578H35C34.4599 14.0584 33.9274 14.1847 33.4447 14.4269V13.7537C33.4339 13.3541 33.5706 12.9645 33.8287 12.6591C34.0868 12.3538 34.4483 12.1542 34.8441 12.0983ZM36.5553 23.9179C36.5553 24.3304 36.3914 24.726 36.0998 25.0177C35.8081 25.3094 35.4125 25.4733 35 25.4733C34.5875 25.4733 34.1919 25.3094 33.9002 25.0177C33.6086 24.726 33.4447 24.3304 33.4447 23.9179V20.5935C33.9591 20.8582 34.5292 20.9964 35.1077 20.9965H36.5553V23.9179ZM29.9759 12.0907C30.3881 12.0913 30.7833 12.2553 31.0748 12.5469C31.3663 12.8385 31.5302 13.2337 31.5306 13.646V23.9179C31.5345 24.1246 31.4971 24.33 31.4207 24.522C31.3443 24.7141 31.2304 24.889 31.0856 25.0365C30.9408 25.184 30.7681 25.3012 30.5775 25.3812C30.3869 25.4612 30.1823 25.5024 29.9756 25.5024C29.7689 25.5024 29.5643 25.4612 29.3737 25.3812C29.1831 25.3012 29.0103 25.184 28.8656 25.0365C28.7208 24.889 28.6068 24.7141 28.5304 24.522C28.454 24.33 28.4167 24.1246 28.4205 23.9179V13.646C28.421 13.2336 28.585 12.8383 28.8766 12.5467C29.1681 12.2551 29.5635 12.0911 29.9759 12.0907ZM23.3959 13.646C23.3959 13.2335 23.5597 12.8379 23.8514 12.5462C24.1431 12.2545 24.5387 12.0907 24.9512 12.0907C25.3637 12.0907 25.7593 12.2545 26.0509 12.5462C26.3426 12.8379 26.5065 13.2335 26.5065 13.646V23.9179C26.5065 24.3304 26.3426 24.726 26.0509 25.0177C25.7593 25.3094 25.3637 25.4733 24.9512 25.4733C24.5387 25.4733 24.1431 25.3094 23.8514 25.0177C23.5597 24.726 23.3959 24.3304 23.3959 23.9179V13.646ZM3.69141 28.9415C3.2202 28.941 2.76847 28.7535 2.43527 28.4203C2.10208 28.0871 1.91464 27.6354 1.91406 27.1642V10.9969C1.91464 10.5257 2.10208 10.074 2.43527 9.7408C2.76847 9.40761 3.2202 9.22017 3.69141 9.21959H4.95633V28.9415H3.69141ZM14.3899 33.6753C14.3893 34.1465 14.2019 34.5982 13.8687 34.9314C13.5355 35.2646 13.0838 35.4521 12.6126 35.4526H8.64773C8.17649 35.4522 7.72466 35.2648 7.39144 34.9316C7.05822 34.5984 6.87082 34.1465 6.87039 33.6753V4.48584C6.87082 4.01459 7.05822 3.56277 7.39144 3.22955C7.72466 2.89633 8.17649 2.70893 8.64773 2.7085H12.6126C13.0838 2.70907 13.5355 2.89652 13.8687 3.22971C14.2019 3.5629 14.3893 4.01464 14.3899 4.48584V33.6753ZM16.304 15.9719H21.4818V22.1893H16.304V15.9719ZM46.6041 30.8622C46.6047 31.7344 46.3374 32.5858 45.8385 33.3012L41.7479 39.1965C41.6366 39.3572 41.577 39.548 41.5773 39.7434V59.2926H28.4205V39.7423C28.4206 39.5805 28.3795 39.4213 28.3013 39.2797L24.4415 32.2879C23.7565 31.045 23.3968 29.6492 23.3959 28.2301V27.0144C24.0597 27.3512 24.8147 27.464 25.548 27.3358C26.2813 27.2076 26.9533 26.8454 27.4635 26.3034C27.7863 26.6457 28.1756 26.9184 28.6076 27.1048C29.0396 27.2912 29.5051 27.3873 29.9756 27.3873C30.4461 27.3873 30.9116 27.2912 31.3436 27.1048C31.7755 26.9184 32.1649 26.6457 32.4877 26.3034C32.8105 26.6457 33.1999 26.9184 33.6319 27.1048C34.0639 27.2912 34.5295 27.3874 35 27.3874C35.4705 27.3874 35.9361 27.2912 36.3681 27.1048C36.8001 26.9184 37.1895 26.6457 37.5123 26.3034C37.9891 26.8074 38.6063 27.1566 39.2838 27.3059C39.9613 27.4551 40.6681 27.3975 41.3125 27.1405C41.9569 26.8835 42.5093 26.4389 42.8982 25.8644C43.287 25.2898 43.4944 24.6117 43.4935 23.9179V20.0395C43.4935 19.7857 43.3927 19.5423 43.2132 19.3628C43.0337 19.1833 42.7903 19.0825 42.5365 19.0825H35.1094C34.7097 19.0933 34.3201 18.9566 34.0148 18.6984C33.7095 18.4403 33.5099 18.0789 33.454 17.683C33.4491 17.6344 33.4469 17.5857 33.4463 17.5376V17.5168C33.4492 17.1064 33.6141 16.7138 33.9051 16.4245C34.1961 16.1351 34.5896 15.9724 35 15.9719H42.3248L42.4966 15.9822H42.5075C43.6087 16.0297 44.6492 16.5001 45.4123 17.2955C46.1754 18.0909 46.6023 19.15 46.6041 20.2522V30.8616V30.8622ZM38.4694 20.9965H41.5795V23.9179C41.5833 24.1246 41.546 24.33 41.4696 24.522C41.3932 24.7141 41.2792 24.889 41.1344 25.0365C40.9897 25.184 40.8169 25.3012 40.6263 25.3812C40.4357 25.4612 40.2311 25.5024 40.0244 25.5024C39.8177 25.5024 39.6131 25.4612 39.4225 25.3812C39.2319 25.3012 39.0592 25.184 38.9144 25.0365C38.7696 24.889 38.6557 24.7141 38.5793 24.522C38.5029 24.33 38.4655 24.1246 38.4694 23.9179V20.9965ZM48.5182 22.1893V20.2512C48.5193 18.6561 47.9029 17.1225 46.7983 15.9719H53.6966V22.1893H48.5182ZM63.1296 33.6737C63.129 34.1449 62.9416 34.5966 62.6084 34.9298C62.2752 35.263 61.8235 35.4504 61.3523 35.451H57.3874C56.9162 35.4504 56.4645 35.263 56.1313 34.9298C55.7981 34.5966 55.6107 34.1449 55.6101 33.6737V4.48584C55.6107 4.01464 55.7981 3.5629 56.1313 3.22971C56.4645 2.89652 56.9162 2.70907 57.3874 2.7085H61.3523C61.8235 2.70907 62.2752 2.89652 62.6084 3.22971C62.9416 3.5629 63.129 4.01464 63.1296 4.48584V33.6753V33.6737ZM68.0859 27.1642C68.0854 27.6354 67.8979 28.0871 67.5647 28.4203C67.2315 28.7535 66.7798 28.941 66.3086 28.9415H65.0437V9.21959H66.3086C66.7798 9.22017 67.2315 9.40761 67.5647 9.7408C67.8979 10.074 68.0854 10.5257 68.0859 10.9969V27.1642Z" fill="#0062AD"/>
</svg>
