<svg width="70" height="68" viewBox="0 0 70 68" fill="none" xmlns="http://www.w3.org/2000/svg">
<path d="M62.5108 24.9045V25.0812L62.6414 25.2002L68.5549 30.5884C69.5372 31.4835 69.8609 32.8591 69.3811 34.0983C68.9011 35.3371 67.7353 36.1357 66.4067 36.1357H61.3896H60.9896V36.5357V65.2085C60.9897 66.1245 60.2471 66.8671 59.3311 66.8671H42.1172C41.2011 66.8671 40.4586 66.1244 40.4586 65.2085V47.7992V47.3992H40.0586H29.9413H29.5413V47.7992V65.2084C29.5413 66.1244 28.7986 66.8669 27.8827 66.8669H10.668C9.75199 66.8669 9.00943 66.1243 9.00943 65.2084V36.5356V36.1356H8.60943H3.59336C2.2646 36.1356 1.09892 35.3371 0.61894 34.0981C0.139103 32.8591 0.462838 31.4835 1.4449 30.5885C1.44491 30.5885 1.44491 30.5885 1.44492 30.5885L32.8517 1.9707L32.8517 1.97065C34.077 0.853802 35.9223 0.853632 37.1482 1.97081L37.1482 1.97084L44.2898 8.47824L44.9592 9.0882V8.18257V7.03769C44.9592 6.12167 45.7019 5.37911 46.6178 5.37911H60.8523C61.7683 5.37911 62.5108 6.12177 62.5108 7.03769V24.9045ZM57.2726 63.5499H57.6726V63.1499V34.4771C57.6726 33.5611 58.4152 32.8186 59.3311 32.8186H65.0446H66.0775L65.314 32.1229L59.7355 27.0397C59.3905 26.7253 59.194 26.2804 59.194 25.8137V9.09626V8.69626H58.794H48.6765H48.2765V9.09626V12.8433C48.2765 13.5 47.8889 14.0951 47.2881 14.3606C46.6874 14.6257 45.9865 14.5116 45.501 14.0693C45.501 14.0693 45.501 14.0693 45.501 14.0693L35.2695 4.74634L35.0001 4.50085L34.7307 4.74634L4.68594 32.1229L3.92247 32.8186H4.95535H10.6679C11.5839 32.8186 12.3264 33.5612 12.3264 34.4771V63.1499V63.5499H12.7264H25.8241H26.2241V63.1499V45.7406C26.2241 44.8246 26.9668 44.082 27.8827 44.082H42.1173C43.0332 44.082 43.7759 44.8247 43.7759 45.7406V63.1499V63.5499H44.1759H57.2726Z" fill="#0062AD" stroke="white" stroke-width="0.8"/>
</svg>
