<svg width="70" height="70" viewBox="0 0 70 70" fill="none" xmlns="http://www.w3.org/2000/svg">
<path d="M16.4087 13.5505C16.4087 12.4029 15.475 11.4692 14.3275 11.4692H9.91411C8.76649 11.4692 7.83284 12.4029 7.83284 13.5505V17.964C7.83284 19.1116 8.76663 20.0453 9.91411 20.0453H14.3277C15.4753 20.0453 16.4088 19.1116 16.4088 17.964L16.4087 13.5505ZM14.3582 17.9639C14.3582 17.9808 14.3443 17.9945 14.3275 17.9945H9.91411C9.89716 17.9945 9.88335 17.9807 9.88335 17.9639V13.5505C9.88335 13.5335 9.89716 13.5199 9.91411 13.5199H14.3277C14.3445 13.5199 14.3583 13.5337 14.3583 13.5505L14.3582 17.9639Z" fill="#0062AD"/>
<path d="M27.3816 13.5505C27.3816 12.4029 26.4479 11.4692 25.3004 11.4692H20.8869C19.7393 11.4692 18.8056 12.4029 18.8056 13.5505V17.964C18.8056 19.1116 19.7394 20.0453 20.8869 20.0453H25.3004C26.448 20.0453 27.3816 19.1116 27.3816 17.964V13.5505ZM25.3311 17.9639C25.3311 17.9808 25.3172 17.9945 25.3004 17.9945H20.8869C20.8699 17.9945 20.8561 17.9807 20.8561 17.9639V13.5505C20.8561 13.5335 20.8699 13.5199 20.8869 13.5199H25.3004C25.3172 13.5199 25.3311 13.5337 25.3311 13.5505V17.9639Z" fill="#0062AD"/>
<path d="M16.4087 24.891C16.4087 23.7434 15.475 22.8098 14.3275 22.8098H9.91411C8.76649 22.8098 7.83284 23.7434 7.83284 24.891V29.3046C7.83284 30.4522 8.76663 31.3858 9.91411 31.3858H14.3277C15.4753 31.3858 16.4088 30.4522 16.4088 29.3046L16.4087 24.891ZM14.3582 29.3044C14.3582 29.3214 14.3443 29.3351 14.3275 29.3351H9.91411C9.89716 29.3351 9.88335 29.3213 9.88335 29.3044V24.891C9.88335 24.8741 9.89716 24.8604 9.91411 24.8604H14.3277C14.3445 24.8604 14.3583 24.8742 14.3583 24.891L14.3582 29.3044Z" fill="#0062AD"/>
<path d="M27.3816 24.891C27.3816 23.7434 26.4479 22.8098 25.3004 22.8098H20.8869C19.7393 22.8098 18.8056 23.7434 18.8056 24.891V29.3046C18.8056 30.4522 19.7394 31.3858 20.8869 31.3858H25.3004C26.448 31.3858 27.3816 30.4522 27.3816 29.3046V24.891ZM25.3311 29.3044C25.3311 29.3214 25.3172 29.3351 25.3004 29.3351H20.8869C20.8699 29.3351 20.8561 29.3213 20.8561 29.3044V24.891C20.8561 24.8741 20.8699 24.8604 20.8869 24.8604H25.3004C25.3172 24.8604 25.3311 24.8742 25.3311 24.891V29.3044Z" fill="#0062AD"/>
<path d="M14.3275 34.1503H9.91411C8.76649 34.1503 7.83284 35.084 7.83284 36.2316V40.6451C7.83284 41.7927 8.76663 42.7264 9.91411 42.7264H14.3277C15.4753 42.7264 16.4088 41.7927 16.4088 40.6451V36.2316C16.4087 35.084 15.4751 34.1503 14.3275 34.1503ZM14.3582 40.6451C14.3582 40.6621 14.3443 40.6757 14.3275 40.6757H9.91411C9.89716 40.6757 9.88335 40.6619 9.88335 40.6451V36.2316C9.88335 36.2146 9.89716 36.2009 9.91411 36.2009H14.3277C14.3445 36.2009 14.3583 36.2148 14.3583 36.2316L14.3582 40.6451Z" fill="#0062AD"/>
<path d="M25.3004 34.1503H20.8869C19.7393 34.1503 18.8056 35.084 18.8056 36.2316V40.6451C18.8056 41.7927 19.7394 42.7264 20.8869 42.7264H25.3004C26.448 42.7264 27.3816 41.7927 27.3816 40.6451V36.2316C27.3816 35.084 26.448 34.1503 25.3004 34.1503ZM25.3311 40.6451C25.3311 40.6621 25.3172 40.6757 25.3004 40.6757H20.8869C20.8699 40.6757 20.8561 40.6619 20.8561 40.6451V36.2316C20.8561 36.2146 20.8699 36.2009 20.8869 36.2009H25.3004C25.3172 36.2009 25.3311 36.2148 25.3311 36.2316V40.6451Z" fill="#0062AD"/>
<path d="M66.7342 63.48H65.2125V54.816C65.2125 51.3646 62.8995 48.275 59.5878 47.3026L53.378 45.4796C53.203 45.3154 53.0012 45.1804 52.7807 45.0822L51.4914 44.5077C51.1267 44.3453 50.7378 44.2729 50.3534 44.285V41.3941C52.3939 39.9068 53.8154 37.6098 54.1234 34.9624C55.1341 34.7126 55.8858 33.798 55.8858 32.7112V24.5513C55.8858 22.6673 54.3818 21.1281 52.5113 21.071C52.4103 19.241 50.8896 17.783 49.0347 17.783H40.5691C39.7891 17.783 39.0406 17.9186 38.3441 18.1654C38.3506 18.099 38.3544 18.0318 38.3544 17.9637V13.5505C38.3544 12.4029 37.4207 11.4692 36.2733 11.4692H31.8597C30.7121 11.4692 29.7784 12.4029 29.7784 13.5505V17.964C29.7784 19.1116 30.7122 20.0453 31.8597 20.0453H35.5651C34.8745 20.8266 34.3629 21.7693 34.097 22.8099H31.8597C30.7121 22.8099 29.7784 23.7435 29.7784 24.8912V29.3047C29.7784 30.4523 30.7122 31.386 31.8597 31.386H33.8897V32.7113C33.8897 33.2546 34.0776 33.7549 34.3916 34.1506H31.8596C30.7119 34.1506 29.7783 35.0842 29.7783 36.2318V40.6454C29.7783 41.793 30.7121 42.7265 31.8596 42.7265H36.2731C37.4207 42.7265 38.3542 41.7929 38.3542 40.6454V40.4875C38.6867 40.8159 39.0439 41.1188 39.422 41.3945V44.2798C39.0408 44.2706 38.656 44.3439 38.2961 44.5055L37.0316 45.0733C36.8125 45.1716 36.6122 45.3064 36.4384 45.4699L30.1915 47.3035C26.8794 48.2755 24.5663 51.3651 24.5663 54.8168V55.513C24.5663 56.0793 25.0253 56.5383 25.5916 56.5383C26.1578 56.5383 26.6168 56.0792 26.6168 55.513V54.8168C26.6168 52.2691 28.3242 49.9885 30.769 49.271L35.8842 47.7697C35.989 48.0597 36.1575 48.3314 36.3891 48.5635L39.8917 52.0707C39.8951 52.0741 39.8985 52.0775 39.9019 52.0808C40.3356 52.503 40.8972 52.7166 41.4608 52.7164C41.5923 52.7164 41.7238 52.7043 41.854 52.6809L42.5812 53.9299L40.8885 63.48H33.0334V61.2525C33.0334 60.6862 32.5745 60.2272 32.0082 60.2272C31.4419 60.2272 30.9829 60.6863 30.9829 61.2525V63.48H26.6172V60.3058C26.6172 59.7395 26.1583 59.2806 25.592 59.2806C25.0257 59.2806 24.5667 59.7397 24.5667 60.3058V63.48H20.2994V51.5154H20.4282C20.9945 51.5154 21.4535 51.0563 21.4535 50.4901C21.4535 49.9238 20.9945 49.4648 20.4282 49.4648H8.0839C7.51762 49.4648 7.05865 49.924 7.05865 50.4901C7.05865 51.0564 7.51762 51.5154 8.0839 51.5154H8.21269V63.48H4.49955V9.78947C4.49955 8.93553 5.19435 8.24086 6.04816 8.24086H40.1394C40.9933 8.24086 41.6879 8.93553 41.6879 9.78947V13.9471C41.6879 14.5134 42.1468 14.9723 42.7131 14.9723C43.2794 14.9723 43.7384 14.5132 43.7384 13.9471V9.78947C43.7384 7.96072 42.3671 6.44725 40.599 6.2207V2.52232C40.5992 1.13148 39.4675 0 38.0767 0H8.1107C6.71986 0 5.58851 1.13148 5.58851 2.52232V6.2207C3.82033 6.44725 2.44904 7.96072 2.44904 9.78947V63.5821C1.04248 63.9436 0 65.2222 0 66.7399C0 68.5375 1.46234 70 3.26006 70H66.7343C68.5319 70 69.9944 68.5375 69.9944 66.7399C69.9944 64.9424 68.5319 63.48 66.7342 63.48ZM8.1107 2.05064H38.0767C38.3369 2.05064 38.5485 2.26228 38.5485 2.52232V6.19022H7.63902V2.52232C7.63902 2.26215 7.85066 2.05064 8.1107 2.05064ZM63.162 54.816V63.48H58.793V61.2525C58.793 60.6862 58.334 60.2272 57.7678 60.2272C57.2015 60.2272 56.7425 60.6863 56.7425 61.2525V63.48H48.8917L47.1963 53.9194L47.9334 52.5983C48.0707 52.6244 48.2096 52.6386 48.3487 52.6386C48.9081 52.6386 49.4672 52.4277 49.9034 52.0085L53.4075 48.5963C53.6484 48.3618 53.823 48.0807 53.9301 47.779L59.0104 49.2704C61.4547 49.9879 63.162 52.2684 63.162 54.816ZM44.2459 52.7136L43.6003 51.6046L44.9751 50.4562L46.1973 51.5013L45.5208 52.7134L44.2459 52.7136ZM50.6569 46.3807L51.9464 46.9554C52.0116 46.9844 52.0308 47.0742 51.9768 47.127L48.4777 50.5344C48.4088 50.6002 48.3026 50.6033 48.2303 50.5416L46.6066 49.1533L50.1006 46.4479C50.2599 46.3244 50.4731 46.2988 50.6569 46.3807ZM49.0349 19.8337C49.8241 19.8337 50.4662 20.4757 50.4662 21.265C50.4662 22.2878 51.2982 23.12 52.3212 23.12H52.4039C53.1931 23.12 53.8352 23.762 53.8352 24.5513V28.8904H53.1629C52.7857 28.8904 52.4788 28.5837 52.4788 28.2064V27.2709C52.4788 25.6352 51.1361 24.4381 49.6579 24.4381C49.3587 24.4381 49.0566 24.4863 48.7609 24.5839C46.2644 25.4092 43.5141 25.4095 41.0142 24.5834C39.1813 23.9777 37.2967 25.3399 37.2967 27.2705V28.2064C37.2967 28.5837 36.9898 28.8904 36.6126 28.8904H35.9403V24.4623C35.9403 21.9101 38.0167 19.8337 40.5691 19.8337H49.0349ZM31.8292 17.9639V13.5505C31.8292 13.5335 31.843 13.5198 31.86 13.5198H36.2735C36.2903 13.5198 36.3042 13.5337 36.3042 13.5505V17.964C36.3042 17.981 36.2903 17.9946 36.2735 17.9946H31.86C31.843 17.9945 31.8292 17.9808 31.8292 17.9639ZM31.8292 29.3044V24.891C31.8292 24.8741 31.843 24.8604 31.86 24.8604H33.89V29.3352H31.86C31.843 29.3351 31.8292 29.3214 31.8292 29.3044ZM36.304 40.6451C36.304 40.6621 36.2902 40.6757 36.2734 40.6757H31.8598C31.8429 40.6757 31.8291 40.6621 31.8291 40.6451V36.2316C31.8291 36.2146 31.8429 36.2009 31.8598 36.2009H35.8835C35.9945 36.6319 36.135 37.0506 36.3039 37.4545L36.304 40.6451ZM37.6549 34.341C37.6064 33.5774 36.9711 32.9792 36.2087 32.9792C36.0609 32.9792 35.9406 32.8588 35.9406 32.7111V30.9411H36.6129C38.1207 30.9411 39.3475 29.7143 39.3475 28.2064V27.2705C39.3475 26.7446 39.8599 26.3617 40.3744 26.5316C43.2862 27.4936 46.4933 27.4933 49.4045 26.531C49.9085 26.3646 50.4284 26.7384 50.4284 27.2709V28.2064C50.4284 29.7143 51.6552 30.9411 53.1631 30.9411H53.8353V32.7111C53.8353 32.8588 53.715 32.9792 53.5672 32.9792C52.8047 32.9792 52.1695 33.5773 52.121 34.3414C51.8811 38.1466 48.704 41.1273 44.8879 41.1273C41.0719 41.1273 37.8949 38.1466 37.6549 34.341ZM44.888 43.1778C46.0905 43.1778 47.243 42.9461 48.3029 42.5255V45.2461L44.9717 47.8256L41.4729 45.2113V42.5257C42.5329 42.9461 43.6855 43.1778 44.888 43.1778ZM37.8406 47.1141C37.7851 47.0586 37.8104 46.9711 37.8719 46.9436L39.1363 46.376C39.3172 46.295 39.5278 46.318 39.687 46.4367L43.3297 49.1587L41.5789 50.6211C41.5073 50.6808 41.4032 50.6779 41.3353 50.6146L37.8406 47.1141ZM44.516 54.7641H45.2633L46.8091 63.48H42.9712L44.516 54.7641ZM10.2633 51.5154H18.2487V63.48H10.2633V51.5154ZM66.7342 67.9494H3.26006C2.59314 67.9494 2.05064 67.4069 2.05064 66.7399C2.05064 66.073 2.59314 65.5307 3.26006 65.5307H66.7343C67.4012 65.5307 67.9437 66.0732 67.9437 66.7399C67.9437 67.4067 67.4011 67.9494 66.7342 67.9494Z" fill="#0062AD"/>
</svg>
