<svg width="70" height="70" viewBox="0 0 70 70" fill="none" xmlns="http://www.w3.org/2000/svg">
<path d="M68.9927 49.0938L68.4987 49.1714C68.439 48.7908 68.3477 48.4157 68.2259 48.05C67.0479 44.7797 63.6956 42.8234 60.2685 43.4072L60.2623 43.4083L60.2623 43.4083C58.7762 43.6423 57.3818 42.6275 57.1474 41.1415L57.1473 41.1408L55.3017 29.3316L55.3013 29.3294C53.8159 19.5318 46.738 11.5083 37.2023 8.81232L36.8962 8.72577L36.8449 8.41181C36.005 3.27138 31.157 -0.214984 26.0164 0.624936C20.9439 1.45377 17.4691 6.19156 18.2027 11.2788L18.2489 11.5994L17.9752 11.7726C9.7617 16.9706 5.42613 26.5551 6.9455 36.1557L6.94556 36.1561L8.92332 48.7249L8.92391 48.7287C9.14542 50.2097 8.13759 51.5944 6.66049 51.8391L6.65018 51.8408L6.65017 51.8407C3.20898 52.3372 0.618547 55.2281 0.500323 58.7023C0.463674 62.5503 3.55185 65.7011 7.40051 65.7408L7.40111 65.7408C7.42483 65.7411 7.44876 65.7412 7.47261 65.7412C7.83633 65.7409 8.19929 65.713 8.55854 65.6577L68.9927 49.0938ZM68.9927 49.0938L68.4987 49.1714C69.0963 52.9757 66.4967 56.544 62.6925 57.1414L62.6924 57.1414L34.5332 61.5727L34.1894 61.6268L34.1207 61.968C33.5807 64.6509 31.8962 66.9642 29.5086 68.3016L29.753 68.7378L29.5086 68.3016C24.9884 70.8337 19.2714 69.2219 16.7393 64.7017L16.5692 64.3981L16.2254 64.4521L8.55994 65.6574L68.9927 49.0938ZM17.4868 60.2216L17.4864 60.2216L7.94962 61.7156C7.94893 61.7158 7.94824 61.7159 7.94755 61.716C7.07966 61.857 6.19402 61.6051 5.53029 61.0283C4.85451 60.4512 4.47054 59.6033 4.48227 58.7147L4.48251 58.697L4.484 58.6793C4.61151 57.1689 5.78018 55.9554 7.28342 55.7701C10.9298 55.1806 13.4184 51.7591 12.8549 48.1077C12.8548 48.1074 12.8548 48.1072 12.8548 48.1069L10.8797 35.5394L10.8796 35.5388C9.55353 27.0394 13.6806 18.6173 21.2099 14.4572L21.2498 14.4351L21.2931 14.4206C21.315 14.4133 21.3367 14.405 21.3584 14.3957C23.7974 13.0774 26.4792 12.2691 29.2405 12.0206L29.2416 12.0205C30.0827 11.9466 30.9276 11.9304 31.7709 11.9719L32.1793 11.9919L32.1851 11.9922L32.1851 11.9922C33.0395 12.0439 33.8897 12.15 34.7306 12.3102H34.7308H34.7309H34.7311H34.7312H34.7314H34.7315H34.7317H34.7319H34.732H34.7322H34.7323H34.7325H34.7326H34.7328H34.7329H34.7331H34.7332H34.7334H34.7335H34.7337H34.7339H34.734H34.7342H34.7343H34.7345H34.7346H34.7348H34.7349H34.7351H34.7352H34.7354H34.7355H34.7357H34.7359H34.736H34.7362H34.7363H34.7365H34.7366H34.7368H34.7369H34.7371H34.7372H34.7374H34.7375H34.7377H34.7379H34.738H34.7382H34.7383H34.7385H34.7386H34.7388H34.7389H34.7391H34.7392H34.7394H34.7396H34.7397H34.7399H34.74H34.7402H34.7403H34.7405H34.7406H34.7408H34.7409H34.7411H34.7413H34.7414H34.7416H34.7417H34.7419H34.742H34.7422H34.7423H34.7425H34.7426H34.7428H34.743H34.7431H34.7433H34.7434H34.7436H34.7437H34.7439H34.744H34.7442H34.7444H34.7445H34.7447H34.7448H34.745H34.7451H34.7453H34.7454H34.7456H34.7458H34.7459H34.7461H34.7462H34.7464H34.7465H34.7467H34.7468H34.747H34.7472H34.7473H34.7475H34.7476H34.7478H34.7479H34.7481H34.7482H34.7484H34.7486H34.7487H34.7489H34.749H34.7492H34.7493H34.7495H34.7497H34.7498H34.75H34.7501H34.7503H34.7504H34.7506H34.7508H34.7509H34.7511H34.7512H34.7514H34.7515H34.7517H34.7519H34.752H34.7522H34.7523H34.7525H34.7526H34.7528H34.753H34.7531H34.7533H34.7534H34.7536H34.7537H34.7539H34.7541H34.7542H34.7544H34.7545H34.7547H34.7548H34.755H34.7552H34.7553H34.7555H34.7556H34.7558H34.756H34.7561H34.7563H34.7564H34.7566H34.7567H34.7569H34.7571H34.7572H34.7574H34.7575H34.7577H34.7579H34.758H34.7582H34.7583H34.7585H34.7587H34.7588H34.759H34.7591H34.7593H34.7594H34.7596H34.7598H34.7599H34.7601H34.7603H34.7604H34.7606H34.7607H34.7609H34.761H34.7612H34.7614H34.7615H34.7617H34.7618H34.762H34.7622H34.7623H34.7625H34.7627H34.7628H34.8163L34.8685 12.3215C43.4995 14.1887 50.069 21.2107 51.358 29.9466C51.3582 29.9475 51.3583 29.9483 51.3584 29.9492L53.2159 41.7535L53.2159 41.7536C53.7903 45.4086 57.216 47.9074 60.8707 47.3392C62.3562 47.0538 63.8393 47.8469 64.4266 49.2419L64.433 49.2572L64.4384 49.2729C64.7299 50.1179 64.6279 51.0495 64.1601 51.8118C63.7023 52.5627 62.9371 53.0742 62.068 53.2099L17.4868 60.2216ZM17.4868 60.2216L32.0657 57.9276L32.0658 57.9276L62.0673 53.21L17.4868 60.2216ZM26.7251 4.80592L26.7245 4.80601C24.6045 5.13861 22.8734 6.67794 22.2951 8.74463L22.0318 9.68547L22.949 9.34872C22.9588 9.3451 22.9742 9.34052 23.0093 9.33188C23.0137 9.3308 23.0189 9.32955 23.0246 9.32816C23.055 9.32081 23.1024 9.30935 23.1473 9.29585L23.1558 9.29329L23.1642 9.29043C23.9021 9.03959 24.6561 8.82718 25.4267 8.64614L25.4267 8.64616L25.4307 8.64519C25.522 8.62294 25.6021 8.60195 25.6772 8.58224C25.7978 8.55062 25.9059 8.52229 26.0279 8.49731L26.0279 8.49733L26.0325 8.49634C26.9709 8.29504 27.92 8.14831 28.8752 8.05703C29.7809 7.97787 30.6907 7.95178 31.5993 7.97919L31.6069 7.97942H31.6144H31.7339H32.6649L32.1508 7.2033C31.1366 5.67223 29.4259 4.74745 27.5893 4.73763L27.5847 4.73765C27.2968 4.73877 27.0095 4.76164 26.7251 4.80592ZM21.6794 64.4535C22.6135 65.1461 23.746 65.5194 24.9088 65.5183C26.6694 65.5208 28.324 64.6776 29.3567 63.2517L30.0616 62.2783L28.8743 62.4644L21.8998 63.5579L20.7209 63.7427L21.6794 64.4535Z" fill="#0062AD" stroke="white"/>
</svg>
